<?xml version="1.0" encoding="iso-8859-1"?>
<!-- Generator: Adobe Illustrator 19.0.0, SVG Export Plug-In . SVG Version: 6.00 Build 0)  -->
<svg version="1.1" id="Capa_1" xmlns="http://www.w3.org/2000/svg" xmlns:xlink="http://www.w3.org/1999/xlink" x="0px" y="0px"
	 viewBox="0 0 512.002 512.002" style="enable-background:new 0 0 512.002 512.002;" xml:space="preserve">
<polyline style="fill:#A84926;" points="162.721,328.271 66.334,502.002 129.442,502.002 214.133,351.627 "/>
<polyline style="fill:#DA5B2C;" points="226.956,354.422 226.956,502.002 283.953,502.002 283.953,354.615 "/>
<polyline style="fill:#A84926;" points="296.914,351.876 381.467,502.002 444.574,502.002 348.49,328.819 "/>
<path style="fill:#FF6243;" d="M340.922,48.471C277.376,10.5,193.656,18.851,138.983,73.523
	c-64.528,64.529-64.528,169.523,0,234.052s169.523,64.529,234.052,0c53.062-53.062,62.491-133.487,28.286-196.273"/>
<polygon style="fill:#FFC477;" points="333.127,61.76 384.885,10.002 383.442,68.66 331.684,120.418 "/>
<polygon style="fill:#FF9929;" points="331.684,120.418 383.442,68.66 442.1,67.217 390.342,118.975 "/>
<path d="M110.699,55.242c-0.649,0-1.31-0.07-1.949-0.2c-0.641-0.13-1.271-0.32-1.881-0.57c-0.6-0.25-1.18-0.56-1.72-0.92
	c-0.55-0.36-1.06-0.78-1.52-1.24s-0.88-0.979-1.25-1.52c-0.36-0.55-0.67-1.13-0.92-1.73s-0.44-1.229-0.57-1.87
	c-0.13-0.64-0.19-1.3-0.19-1.949c0-0.65,0.061-1.311,0.19-1.96c0.13-0.631,0.32-1.261,0.57-1.87c0.25-0.601,0.56-1.181,0.92-1.721
	c0.37-0.55,0.79-1.06,1.25-1.52c0.46-0.47,0.97-0.88,1.52-1.25c0.54-0.36,1.12-0.67,1.72-0.92c0.61-0.25,1.24-0.44,1.881-0.57
	c1.279-0.26,2.609-0.26,3.899,0c0.641,0.13,1.271,0.32,1.87,0.57c0.61,0.25,1.19,0.56,1.73,0.92c0.55,0.37,1.06,0.78,1.52,1.25
	c0.46,0.46,0.88,0.97,1.24,1.52c0.359,0.54,0.67,1.12,0.92,1.721c0.25,0.609,0.439,1.239,0.57,1.87
	c0.13,0.649,0.199,1.31,0.199,1.96c0,0.649-0.069,1.31-0.199,1.949c-0.131,0.641-0.32,1.271-0.57,1.87
	c-0.25,0.601-0.561,1.181-0.92,1.73c-0.36,0.54-0.78,1.06-1.24,1.52s-0.97,0.88-1.52,1.24c-0.54,0.36-1.12,0.67-1.73,0.92
	c-0.6,0.25-1.229,0.44-1.87,0.57C112.01,55.172,111.35,55.242,110.699,55.242z"/>
<path d="M110.699,345.858c-2.56,0-5.118-0.977-7.071-2.929c-11.109-11.109-20.991-23.407-29.371-36.554
	c-22.865-35.865-34.486-77.463-33.605-120.296c0.884-42.95,14.288-84.127,38.765-119.078c3.169-4.524,9.404-5.622,13.928-2.455
	c4.523,3.168,5.623,9.404,2.455,13.928c-44.81,63.985-46.689,151.252-4.678,217.151c7.6,11.922,16.565,23.079,26.648,33.162
	c3.905,3.905,3.905,10.237,0,14.143C115.817,344.882,113.259,345.858,110.699,345.858z"/>
<path d="M401.32,345.859c-2.56,0-5.118-0.977-7.071-2.929c-3.905-3.905-3.905-10.237,0-14.143
	c49.653-49.653,68.839-122.696,50.072-190.625c-1.471-5.323,1.652-10.831,6.976-12.302c5.318-1.471,10.831,1.651,12.302,6.976
	c20.682,74.855-0.473,155.358-55.207,210.094C406.438,344.883,403.88,345.859,401.32,345.859z"/>
<path style="fill:#F6DAB9;" d="M330.907,265.446c-41.299,41.299-108.497,41.299-149.795,0c-41.299-41.299-41.299-108.497,0-149.795
	c41.299-41.299,108.497-41.299,149.795,0C372.206,156.95,372.206,224.148,330.907,265.446z"/>
<circle style="fill:#F24141;" cx="256.011" cy="190.552" r="46.34"/>
<path d="M453.318,497.15L361.18,331.079c6.634-4.981,12.958-10.465,18.926-16.433c27.304-27.304,44.491-61.956,49.705-100.211
	c4.814-35.32-1.343-71.845-17.353-103.435l36.712-36.713c2.892-2.892,3.731-7.253,2.12-11.012c-1.612-3.759-5.344-6.136-9.438-6.057
	l-48.156,1.185l1.184-48.157c0.101-4.089-2.299-7.826-6.057-9.438c-3.759-1.609-8.121-0.771-11.012,2.12l-35.044,35.045
	c-32.249-18.309-70.199-25.995-107.305-21.652c-39.577,4.627-75.385,21.962-103.552,50.128c-68.427,68.427-68.427,179.767,0,248.194
	c5.732,5.732,11.794,11.018,18.143,15.841L57.59,497.15c-1.719,3.098-1.67,6.873,0.127,9.926c1.797,3.052,5.075,4.926,8.617,4.926
	h63.107c3.61,0,6.941-1.946,8.713-5.093l78.801-139.914v135.007c0,5.522,4.478,10,10,10h56.998c5.522,0,10-4.478,10-10V366.996
	l78.801,139.913c1.771,3.146,5.103,5.093,8.713,5.093h63.107c3.542,0,6.82-1.874,8.617-4.927
	C454.988,504.023,455.037,500.248,453.318,497.15z M387.686,78.558l29.659-0.729l-31.247,31.248l-29.661,0.729L387.686,78.558z
	 M343.025,66.004l31.248-31.248l-0.729,29.66l-8.936,8.936c-0.01,0.01-0.02,0.019-0.03,0.029l-22.282,22.282L343.025,66.004z
	 M351.881,190.549c0,25.654-9.959,49.741-28.045,67.826c-37.398,37.4-98.254,37.4-135.652,0
	c-18.086-18.085-28.045-42.172-28.045-67.826c0-25.653,9.959-49.741,28.045-67.826c18.699-18.7,43.263-28.05,67.826-28.05
	c22.667,0,45.333,7.961,63.392,23.885l-28.083,28.083c-22.105-17.801-54.634-16.445-75.15,4.069
	c-21.968,21.968-21.968,57.713,0,79.681c10.984,10.983,25.412,16.476,39.841,16.476c14.429,0,28.856-5.492,39.841-16.476
	c18.572-18.572,21.442-46.991,8.612-68.608l28.509-28.509C345.245,149.713,351.881,169.609,351.881,190.549z M281.708,216.247
	c-14.17,14.17-37.227,14.17-51.396,0s-14.17-37.226,0-51.396c7.085-7.085,16.392-10.628,25.698-10.628
	c7.382,0,14.764,2.23,21.038,6.688l-22.566,22.566c-3.905,3.905-3.905,10.237,0,14.143c1.953,1.952,4.512,2.929,7.071,2.929
	s5.118-0.977,7.071-2.929l20.967-20.966C295.02,189.824,292.393,205.562,281.708,216.247z M123.597,492.002H83.318l83.391-150.309
	c10.463,6.196,21.521,11.261,33.021,15.131L123.597,492.002z M273.953,492.002h-36.998V364.958
	c6.285,0.672,12.643,1.013,19.055,1.013c6.034,0,12.021-0.302,17.943-0.898V492.002z M146.055,300.504
	c-60.629-60.63-60.629-159.28,0-219.909c48.352-48.352,122.013-59.259,181.979-27.883l-1.978,1.978
	c-1.815,1.815-2.862,4.259-2.926,6.825l-0.835,33.92C277.116,63.918,214.321,68.3,174.041,108.58
	c-21.862,21.863-33.902,50.974-33.902,81.969c0,30.996,12.04,60.106,33.902,81.969c22.599,22.599,52.284,33.898,81.969,33.898
	s59.37-11.3,81.969-33.898c21.862-21.862,33.902-50.973,33.902-81.969c0-21.784-5.947-42.636-17.071-60.696l35.778-0.88
	c2.566-0.063,5.01-1.111,6.825-2.926l0.064-0.064c26.544,58.39,14.289,128.719-31.513,174.521
	C305.334,361.134,206.683,361.132,146.055,300.504z M387.311,492.002l-75.958-134.866c11.528-3.807,22.618-8.811,33.118-14.949
	l83.119,149.815H387.311z"/>
<g>
</g>
<g>
</g>
<g>
</g>
<g>
</g>
<g>
</g>
<g>
</g>
<g>
</g>
<g>
</g>
<g>
</g>
<g>
</g>
<g>
</g>
<g>
</g>
<g>
</g>
<g>
</g>
<g>
</g>
</svg>
