<?xml version="1.0" encoding="iso-8859-1"?>
<!-- Generator: Adobe Illustrator 19.0.0, SVG Export Plug-In . SVG Version: 6.00 Build 0)  -->
<svg version="1.1" id="Capa_1" xmlns="http://www.w3.org/2000/svg" xmlns:xlink="http://www.w3.org/1999/xlink" x="0px" y="0px"
	 viewBox="0 0 512 512" style="enable-background:new 0 0 512 512;" xml:space="preserve">
<ellipse style="fill:#C6C5CA;" cx="256" cy="256" rx="246" ry="245.75"/>
<path d="M256,511.746c-68.378,0-132.664-26.601-181.016-74.902C26.63,388.539,0,324.314,0,256S26.63,123.461,74.984,75.156
	C123.336,26.854,187.622,0.254,256,0.254s132.664,26.601,181.016,74.902C485.37,123.461,512,187.686,512,256
	s-26.63,132.539-74.984,180.844C388.664,485.146,324.378,511.746,256,511.746z M256,20.254C125.869,20.254,20,126.009,20,256
	s105.869,235.746,236,235.746S492,385.991,492,256S386.131,20.254,256,20.254z"/>
<g>
	<path style="fill:#DA5B2C;" d="M179.167,256H60.735c0,107.558,87.595,195.063,195.265,195.063V332.754"/>
	<path style="fill:#DA5B2C;" d="M332.833,256h118.432c0-107.558-87.595-195.063-195.265-195.063v118.31"/>
</g>
<path d="M215.028,414.612c-0.879,0-1.772-0.117-2.661-0.362c-55.492-15.284-99.469-59.217-114.771-114.653
	c-1.469-5.324,1.655-10.831,6.979-12.301c5.319-1.463,10.831,1.654,12.3,6.979c13.438,48.686,52.064,87.27,100.803,100.694
	c5.324,1.466,8.452,6.972,6.985,12.296C223.442,411.7,219.416,414.612,215.028,414.612z"/>
<path d="M404.759,225.067c-4.386,0-8.41-2.908-9.634-7.342c-9.87-35.757-32.926-66.048-64.922-85.295
	c-4.732-2.847-6.261-8.991-3.415-13.724c2.846-4.734,8.991-6.26,13.724-3.415c36.41,21.902,62.652,56.391,73.892,97.111
	c1.469,5.324-1.655,10.831-6.979,12.301C406.535,224.949,405.64,225.067,404.759,225.067z"/>
<path d="M296.98,117.39c-2.64,0-5.21-1.07-7.07-2.93c-0.46-0.46-0.88-0.97-1.25-1.521c-0.36-0.54-0.67-1.12-0.92-1.72
	c-0.25-0.61-0.44-1.24-0.57-1.88s-0.19-1.3-0.19-1.95c0-0.649,0.06-1.31,0.19-1.95s0.32-1.27,0.57-1.87
	c0.25-0.609,0.56-1.189,0.92-1.729c0.37-0.55,0.79-1.061,1.25-1.521c2.32-2.319,5.77-3.39,9.02-2.729c0.64,0.12,1.27,0.32,1.87,0.57
	c0.61,0.25,1.19,0.56,1.73,0.92c0.55,0.359,1.06,0.779,1.52,1.239s0.88,0.971,1.24,1.521c0.36,0.54,0.67,1.12,0.92,1.729
	c0.25,0.601,0.44,1.23,0.57,1.87c0.13,0.641,0.2,1.301,0.2,1.95c0,0.65-0.07,1.311-0.2,1.95s-0.32,1.27-0.57,1.88
	c-0.25,0.6-0.56,1.18-0.92,1.72c-0.36,0.551-0.78,1.061-1.24,1.521C302.19,116.319,299.61,117.39,296.98,117.39z"/>
<g>
	<path style="fill:#A84926;" d="M256,179.246V60.937C148.33,60.937,60.735,148.442,60.735,256h118.432"/>
	<path style="fill:#A84926;" d="M256,332.754v118.309c107.67,0,195.265-87.505,195.265-195.063H332.833"/>
</g>
<ellipse style="fill:#FFC477;" cx="256" cy="256" rx="76.83" ry="76.75"/>
<path d="M256,50.937C142.816,50.937,50.734,142.928,50.734,256S142.816,461.063,256,461.063S461.266,369.072,461.266,256
	S369.184,50.937,256,50.937z M440.999,246H342.26c-4.6-39.865-36.357-71.59-76.26-76.182V71.203
	C360.208,76.232,435.955,151.897,440.999,246z M256,322.754c-36.852,0-66.833-29.945-66.833-66.754s29.981-66.754,66.833-66.754
	s66.833,29.945,66.833,66.754S292.852,322.754,256,322.754z M246,71.203v98.615c-39.903,4.592-71.66,36.317-76.26,76.182H71.001
	C76.045,151.897,151.792,76.232,246,71.203z M71.001,266h98.739c4.6,39.865,36.357,71.59,76.26,76.182v98.614
	C151.792,435.767,76.045,360.102,71.001,266z M266,440.796v-98.614c39.903-4.592,71.66-36.317,76.26-76.182h98.739
	C435.955,360.102,360.208,435.767,266,440.796z"/>
<g>
</g>
<g>
</g>
<g>
</g>
<g>
</g>
<g>
</g>
<g>
</g>
<g>
</g>
<g>
</g>
<g>
</g>
<g>
</g>
<g>
</g>
<g>
</g>
<g>
</g>
<g>
</g>
<g>
</g>
</svg>
