<?xml version="1.0" encoding="iso-8859-1"?>
<!-- Generator: Adobe Illustrator 19.0.0, SVG Export Plug-In . SVG Version: 6.00 Build 0)  -->
<svg version="1.1" id="Capa_1" xmlns="http://www.w3.org/2000/svg" xmlns:xlink="http://www.w3.org/1999/xlink" x="0px" y="0px"
	 viewBox="0 0 512 512" style="enable-background:new 0 0 512 512;" xml:space="preserve">
<path style="fill:#F6DAB9;" d="M176.227,418.237c0-22.181-17.978-40.162-40.158-40.167h215.021V117.758H95.68v299.1
	c0,22.734,18.259,41.203,40.912,41.543C158.53,458.116,176.227,440.243,176.227,418.237z"/>
<path style="fill:#FF9929;" d="M95.68,93.762c-0.001-6.939-1.763-13.463-4.857-19.163c-6.801-12.506-20.053-20.995-35.286-21.005
	h-5.362C28.036,53.428,10,71.329,10,93.469v64.536H95.68V93.762z"/>
<path style="fill:#FFC477;" d="M378.856,378.07H136.069c22.179,0.005,40.158,17.987,40.158,40.167
	c0,22.182-17.98,40.163-40.161,40.167v0.002h242.79c19.555,0,35.838-13.972,39.422-32.465c0.489-2.496,0.742-5.068,0.742-7.699
	C419.021,396.056,401.042,378.07,378.856,378.07z"/>
<path d="M155.922,195.282c-0.65,0-1.31-0.06-1.95-0.19c-0.64-0.13-1.27-0.32-1.87-0.57c-0.61-0.25-1.19-0.56-1.73-0.92
	c-0.55-0.37-1.06-0.79-1.52-1.25c-0.46-0.46-0.88-0.97-1.24-1.52c-0.36-0.54-0.67-1.12-0.92-1.72c-0.25-0.61-0.44-1.24-0.57-1.87
	c-0.13-0.65-0.2-1.31-0.2-1.96s0.07-1.31,0.2-1.95c0.13-0.64,0.32-1.27,0.57-1.87c0.25-0.61,0.56-1.19,0.92-1.73
	c0.36-0.55,0.78-1.06,1.24-1.52c0.46-0.46,0.97-0.88,1.52-1.24c0.54-0.36,1.12-0.67,1.73-0.92c0.6-0.25,1.23-0.44,1.87-0.57
	c1.29-0.26,2.62-0.26,3.91,0c0.63,0.13,1.26,0.32,1.87,0.57c0.6,0.25,1.18,0.56,1.72,0.92c0.55,0.36,1.06,0.78,1.52,1.24
	c0.46,0.46,0.88,0.97,1.25,1.52c0.36,0.54,0.67,1.12,0.92,1.73c0.25,0.6,0.44,1.23,0.57,1.87c0.13,0.64,0.19,1.3,0.19,1.95
	s-0.06,1.31-0.19,1.96c-0.13,0.63-0.32,1.26-0.57,1.87c-0.25,0.6-0.56,1.18-0.92,1.72c-0.37,0.55-0.79,1.06-1.25,1.52
	c-0.46,0.46-0.97,0.88-1.52,1.25c-0.54,0.36-1.12,0.67-1.72,0.92c-0.61,0.25-1.24,0.44-1.87,0.57
	C157.232,195.222,156.572,195.282,155.922,195.282z"/>
<path d="M296.646,195.285H195.923c-5.523,0-10-4.477-10-10c0-5.523,4.477-10,10-10h100.722c5.523,0,10,4.477,10,10
	C306.645,190.809,302.168,195.285,296.646,195.285z"/>
<path d="M364.982,428.238H215.989c-5.523,0-10-4.477-10-10s4.477-10,10-10h148.993c5.523,0,10,4.477,10,10
	S370.505,428.238,364.982,428.238z"/>
<circle style="fill:#F24141;" cx="155.922" cy="303.945" r="20.302"/>
<path d="M155.925,334.25c-16.708,0-30.302-13.593-30.302-30.302s13.593-30.302,30.302-30.302s30.301,13.593,30.301,30.302
	S172.634,334.25,155.925,334.25z M155.925,293.647c-5.681,0-10.302,4.622-10.302,10.303s4.622,10.302,10.302,10.302
	c5.681,0,10.302-4.622,10.302-10.302S161.606,293.647,155.925,293.647z"/>
<path style="fill:#898890;" d="M472.84,92.193l18.715,7.845l7.845,18.715c5.197,12.398,2.382,26.708-7.124,36.213l-99.765,99.765
	c-7.741,7.741-18.806,11.154-29.562,9.123l-29.614-5.597l-5.597-29.614c-2.033-10.756,1.382-21.821,9.122-29.562l99.765-99.765
	C446.133,89.811,460.443,86.997,472.84,92.193z"/>
<path style="fill:#FFC477;" d="M351.091,93.762c-0.001-6.939-1.763-13.463-4.857-19.163c-6.805-12.513-20.069-21.005-35.315-21.005
	H55.508c15.246,0,28.511,8.492,35.315,21.005c3.094,5.7,4.857,12.224,4.857,19.163v23.995h255.411V93.762z"/>
<path d="M291.01,245.937c0-5.523-4.477-10-10-10H133.723c-5.523,0-10,4.477-10,10c0,5.523,4.477,10,10,10H281.01
	C286.533,255.936,291.01,251.46,291.01,245.937z"/>
<path d="M361.092,273.679c2.671,0.504,5.354,0.752,8.019,0.752c11.322,0,22.307-4.465,30.471-12.628l99.765-99.766
	c12.43-12.43,16.071-30.936,9.276-47.15l-7.846-18.715c-1.014-2.418-2.938-4.342-5.357-5.356l-18.715-7.845
	c-16.211-6.796-34.719-3.155-47.15,9.275l-68.466,68.466V93.761c-0.001-8.346-2.1-16.621-6.072-23.939
	c-8.798-16.177-25.696-26.228-44.1-26.228H55.508c-0.191,0-0.38,0.006-0.568,0.016c-0.163-0.009-0.326-0.015-0.491-0.016
	c-0.195-0.002-4.701-0.002-4.91-0.001C22.224,43.772,0,66.145,0,93.469v64.537c0,5.523,4.477,10,10,10h75.681v248.853
	c0,27.569,22.076,50.409,49.474,51.506c0.301,0.027,0.605,0.042,0.913,0.042h242.79c23.976,0,44.684-17.059,49.235-40.543
	c0.616-3.146,0.929-6.383,0.929-9.621c0-27.665-22.503-50.172-50.164-50.172h-17.766V273.68L361.092,273.679z M385.44,247.661
	c-5.407,5.407-13.117,7.787-20.634,6.368l-11.017-2.082l45.718-45.718h27.366L385.44,247.661z M443.697,106.388
	c6.664-6.664,16.584-8.616,25.277-4.972l14.94,6.263l6.263,14.94c3.643,8.692,1.691,18.613-4.973,25.277L446.87,186.23h-27.366
	l26.505-26.505c3.905-3.905,3.905-10.236,0-14.142c-3.905-3.905-10.237-3.905-14.142,0l-92.22,92.22l-2.082-11.017
	c-1.42-7.513,0.96-15.226,6.367-20.633L443.697,106.388z M310.919,63.595c11.07,0,21.237,6.048,26.527,15.776
	c2.418,4.455,3.646,9.298,3.646,14.394v13.994H105.68V93.761c-0.001-8.346-2.1-16.621-6.072-23.939
	c-1.192-2.192-2.533-4.271-4.006-6.229h215.316V63.595z M19.999,148.006V93.468c0-16.367,13.31-29.77,29.648-29.875
	c0.289-0.001,4.341-0.001,4.67,0h0.058c0.19,0,0.379-0.006,0.567-0.016c0.188,0.01,0.377,0.016,0.568,0.016
	c11.07,0,21.237,6.048,26.527,15.776c2.418,4.455,3.645,9.298,3.646,14.392v54.243H19.999z M409.022,418.242
	c0,1.95-0.187,3.894-0.56,5.796c-2.736,14.12-15.187,24.369-29.605,24.369l-202.739-0.001c6.343-8.402,10.108-18.854,10.108-30.168
	c0-11.314-3.766-21.766-10.109-30.168h202.74C395.49,388.07,409.022,401.605,409.022,418.242z M341.091,368.071H136.069
	c-5.522,0-10,4.477-10,9.999s4.475,10,9.998,10.001c16.63,0.004,30.161,13.537,30.161,30.168c0,16.435-13.214,29.845-29.577,30.164
	c-17.086-0.306-30.971-14.437-30.971-31.542V127.758h235.411v52.953l-11.301,11.301c-10.086,10.086-14.525,24.475-11.876,38.489
	l4.615,24.422L283.5,293.951h-67.511c-5.523,0-10,4.477-10,10s4.477,10,10,10h69.497c0.366,0,0.727-0.02,1.082-0.058
	c0.358,0.039,0.717,0.058,1.076,0.058c2.559,0,5.119-0.976,7.071-2.929l41.956-41.956l4.421,0.836V368.071z"/>
<g>
</g>
<g>
</g>
<g>
</g>
<g>
</g>
<g>
</g>
<g>
</g>
<g>
</g>
<g>
</g>
<g>
</g>
<g>
</g>
<g>
</g>
<g>
</g>
<g>
</g>
<g>
</g>
<g>
</g>
</svg>
