<?xml version="1.0" encoding="iso-8859-1"?>
<!-- Generator: Adobe Illustrator 19.0.0, SVG Export Plug-In . SVG Version: 6.00 Build 0)  -->
<svg version="1.1" id="Capa_1" xmlns="http://www.w3.org/2000/svg" xmlns:xlink="http://www.w3.org/1999/xlink" x="0px" y="0px"
	 viewBox="0 0 512.001 512.001" style="enable-background:new 0 0 512.001 512.001;" xml:space="preserve">
<rect x="154.871" y="314.15" style="fill:#B0DBD0;" width="202.26" height="59.84"/>
<path style="fill:#2C7B7E;" d="M288.201,373.991h-64.4c-13.585,51.316-50.818,66.105-50.818,66.105L256.001,502l83.018-61.903
	C339.02,440.097,301.786,425.307,288.201,373.991z"/>
<g>
	<path style="fill:#898890;" d="M180.56,153.202l-9.539-1.918c-16.35-2.185-32.804-0.755-48.914,4.258
		c-34.145,10.639-60.035,38.31-65.881,70.53c-5.837,32.227,6.21,62.993,33.055,84.409c7.029,5.608,7.888-27.311,26.848-45.136
		c14.042-13.202,45.966-16.122,60.56,10.009c6.24,8.855,5.881,27.464,4.494,38.798h37.751"/>
	<path style="fill:#898890;" d="M298.322,314.151h32.497c-1.387-11.334-1.746-29.943,4.494-38.798
		c14.594-26.131,46.518-23.211,60.56-10.009c18.96,17.826,19.818,50.744,26.848,45.136c26.846-21.416,38.892-52.182,33.055-84.409
		c-5.845-32.221-31.735-59.891-65.881-70.53c-16.11-5.012-32.564-6.443-48.914-4.258l-4.177,0.84"/>
</g>
<path style="fill:#C6C5CA;" d="M218.934,314.151h79.388c6.246-53.279,16.176-94.682,27.992-123.557
	c6.53-15.702,11.149-32.844,11.15-49.842C337.463,94.368,261.008,10.146,258.619,10c-2.548,0.001-78.844,83.502-78.844,130.751
	c0,16.999,4.62,34.14,10.991,49.986C202.488,219.122,212.614,260.519,218.934,314.151z"/>
<path d="M256.001,106.979c-0.65,0-1.31-0.06-1.95-0.189s-1.27-0.32-1.87-0.57c-0.61-0.25-1.19-0.56-1.73-0.92
	c-0.55-0.37-1.06-0.79-1.52-1.25s-0.88-0.97-1.24-1.521c-0.36-0.539-0.67-1.119-0.92-1.72c-0.25-0.609-0.44-1.24-0.57-1.87
	c-0.13-0.649-0.2-1.31-0.2-1.96c0-0.649,0.07-1.31,0.2-1.95c0.13-0.64,0.32-1.27,0.57-1.869c0.25-0.61,0.56-1.19,0.92-1.73
	c0.36-0.55,0.78-1.06,1.24-1.52s0.97-0.881,1.52-1.24c0.54-0.36,1.12-0.67,1.73-0.92c0.6-0.25,1.23-0.44,1.87-0.57
	c1.29-0.26,2.62-0.26,3.9,0c0.64,0.13,1.27,0.32,1.88,0.57c0.6,0.25,1.18,0.56,1.72,0.92c0.55,0.359,1.06,0.78,1.52,1.24
	s0.88,0.97,1.24,1.52c0.36,0.54,0.67,1.12,0.92,1.73c0.25,0.6,0.45,1.229,0.58,1.869c0.13,0.641,0.19,1.301,0.19,1.95
	c0,0.65-0.06,1.311-0.19,1.96c-0.13,0.63-0.33,1.261-0.58,1.87c-0.25,0.601-0.56,1.181-0.92,1.72c-0.36,0.551-0.78,1.061-1.24,1.521
	s-0.97,0.88-1.52,1.25c-0.54,0.36-1.12,0.67-1.72,0.92c-0.61,0.25-1.24,0.44-1.88,0.57
	C257.311,106.92,256.651,106.979,256.001,106.979z"/>
<path d="M465.615,224.287c-6.498-35.816-35.052-66.548-72.749-78.295c-14.947-4.649-30.185-6.463-45.403-5.412
	c-0.071-21.631-13.669-51.371-40.42-88.4c-11.394-15.771-22.149-28.554-27.546-34.769c-3.599-4.146-6.919-7.808-9.602-10.593
	c-3.791-3.935-6.295-6.534-10.667-6.801C259.025,0.006,258.821,0,258.618,0h-0.003c-4.706,0.002-7.596,2.948-11.255,6.678
	c-2.686,2.738-6.024,6.375-9.655,10.516c-5.384,6.14-16.124,18.8-27.564,34.6c-26.785,36.991-40.367,66.921-40.367,88.958
	c0,0.101,0.001,0.203,0.001,0.304c-16.956-1.905-33.978-0.245-50.644,4.939c-37.693,11.745-66.247,42.477-72.745,78.296
	c-6.514,35.962,6.848,70.226,36.659,94.008c3.233,2.579,7.239,3.44,10.994,2.36c7.096-2.04,9.474-8.817,12.765-18.198
	c3.231-9.209,7.657-21.822,16.174-29.83c4.832-4.541,14.373-8.401,24.796-6.791c6.065,0.938,14.49,4.196,20.183,14.391
	c0.17,0.304,0.356,0.6,0.557,0.884c2.569,3.647,3.833,12.665,3.445,23.038h-17.087c-5.523,0-10,4.478-10,10v59.84
	c0,5.522,4.477,10,10,10h55.166c-13.871,35.368-39.595,46.336-40.748,46.812c-3.368,1.338-5.748,4.393-6.223,7.984
	c-0.474,3.593,1.032,7.16,3.937,9.326l83.019,61.903c1.773,1.322,3.875,1.983,5.978,1.983c2.102,0,4.205-0.661,5.978-1.983
	l83.019-61.903c2.905-2.166,4.439-5.723,3.965-9.314c-0.475-3.593-2.827-6.636-6.194-7.973
	c-1.205-0.496-26.933-11.467-40.805-46.835h55.166c5.523,0,10-4.478,10-10v-59.84c0-5.522-4.477-10-10-10h-17.087
	c-0.388-10.373,0.875-19.391,3.445-23.038c0.201-0.284,0.387-0.58,0.557-0.884c5.693-10.194,14.118-13.452,20.183-14.391
	c10.426-1.611,19.965,2.25,24.796,6.79c8.518,8.009,12.943,20.622,16.175,29.831c3.291,9.381,5.669,16.158,12.765,18.198
	c3.754,1.08,7.761,0.219,10.994-2.36C458.767,294.516,472.129,260.252,465.615,224.287z M223.887,66.947
	c13.476-19.007,27.095-34.892,34.678-43.06c18.259,19.873,68.899,82.455,68.899,116.863c0,3.27-0.192,6.622-0.574,10.053
	c-0.015,0.115-0.029,0.231-0.04,0.348c-1.279,11.121-4.553,23.061-9.791,35.655c-11.989,29.299-21.482,69.728-27.584,117.345
	h-23.474v-167.17c0-5.522-4.477-10-10-10c-5.523,0-10,4.478-10,10v167.17h-18.225c-6.134-47.597-15.689-87.983-27.732-117.145
	c-6.813-16.947-10.269-32.51-10.269-46.256C189.775,124.185,201.889,97.974,223.887,66.947z M185.182,270.056
	c-7.531-13.208-19.711-21.718-34.35-23.981c-15.024-2.324-31.336,2.38-41.553,11.984c-12.073,11.352-17.654,27.256-21.347,37.78
	c-0.005,0.016-0.011,0.031-0.017,0.047c-18.504-18.462-26.426-42.764-21.85-68.028c5.184-28.575,28.349-53.214,59.012-62.768
	c14.601-4.542,29.505-5.867,44.3-3.937l2.372,0.477c1.898,10.448,5.161,21.452,9.773,32.924
	c11.207,27.135,20.171,64.855,26.084,109.597h-15.627C192.337,293.348,191.354,279.233,185.182,270.056z M320.994,441.063
	l-64.993,48.463l-64.993-48.463c12.574-9.081,30.329-26.559,40.268-57.072h49.451C290.665,414.505,308.421,431.982,320.994,441.063z
	 M347.129,363.991H164.873v-39.84h182.256V363.991z M424.086,295.886c-0.006-0.016-0.011-0.031-0.017-0.047
	c-3.693-10.524-9.273-26.429-21.347-37.781c-10.215-9.604-26.528-14.307-41.553-11.983c-14.638,2.264-26.819,10.773-34.35,23.981
	c-6.171,9.178-7.155,23.292-6.798,34.096h-10.38c5.884-44.784,14.793-82.561,25.906-109.718
	c4.825-11.601,8.199-22.848,10.096-33.628c13.801-1.387,27.672,0.05,41.277,4.283c30.667,9.556,53.832,34.194,59.016,62.767
	C450.512,253.122,442.59,277.424,424.086,295.886z"/>
<g>
</g>
<g>
</g>
<g>
</g>
<g>
</g>
<g>
</g>
<g>
</g>
<g>
</g>
<g>
</g>
<g>
</g>
<g>
</g>
<g>
</g>
<g>
</g>
<g>
</g>
<g>
</g>
<g>
</g>
</svg>
