<?xml version="1.0" encoding="iso-8859-1"?>
<!-- Generator: Adobe Illustrator 19.0.0, SVG Export Plug-In . SVG Version: 6.00 Build 0)  -->
<svg version="1.1" id="Capa_1" xmlns="http://www.w3.org/2000/svg" xmlns:xlink="http://www.w3.org/1999/xlink" x="0px" y="0px"
	 viewBox="0 0 512 512" style="enable-background:new 0 0 512 512;" xml:space="preserve">
<path style="fill:#B0DBD0;" d="M289.179,103.18l-15.13-35.047c-5.131,3.533-11.349,5.601-18.049,5.601
	c-6.701,0-12.918-2.069-18.049-5.601l-15.13,35.047c-1.456,3.373-2.842,6.563-4.158,9.611C242.021,130.892,256,156.938,256,194.231
	c0-37.293,13.979-63.339,37.337-81.441C292.021,109.742,290.635,106.552,289.179,103.18z"/>
<path style="fill:#81B4A7;" d="M166.511,359.454h-33.564c-24.721,4.444-42.711,25.955-42.711,51.074V502h331.529v-91.472
	c0-25.118-17.99-46.63-42.711-51.074H345.49"/>
<path style="fill:#FF9929;" d="M190.388,332.654h-28.401c-8.65,0-12.598,10.717-6.205,16.358l29.144,25.948l-12.972,39.297
	c-2.633,7.522,4.701,14.478,11.844,11.846l48.699-16.17l15.042,30.272c1.692,3.385,5.077,5.265,8.461,5.265s6.769-1.881,8.461-5.265
	l15.042-30.272l48.699,16.17c7.332,2.633,14.477-4.513,11.844-11.846l-12.972-39.297l29.144-25.948
	c6.392-5.641,2.444-16.358-6.205-16.358h-28.401"/>
<path style="fill:#F6DAB9;" d="M163.084,219.51v46.528c0,51.103,41.812,92.916,92.916,92.916s92.916-41.812,92.916-92.916V219.51"/>
<path d="M300.706,273.157h-8.817c-5.522,0-10-4.478-10-10s4.478-10,10-10h8.817c5.522,0,10,4.478,10,10
	S306.229,273.157,300.706,273.157z"/>
<path d="M220.111,273.157h-8.817c-5.522,0-10-4.478-10-10s4.478-10,10-10h8.817c5.522,0,10,4.478,10,10
	S225.634,273.157,220.111,273.157z"/>
<path style="fill:#DA5B2C;" d="M164.62,202.781c-0.998,5.449-1.52,11.065-1.52,16.802v20.444c0,0,35.568,2.872,52.603-29.843
	c17.034,32.715,95.179,29.843,133.197,29.843v-20.444c0-5.738-0.522-11.353-1.52-16.802H164.62z"/>
<circle style="fill:#FF9929;" cx="256" cy="41.867" r="31.867"/>
<path style="fill:#F24141;" d="M368.267,82.243C302.824,95.397,256,125.979,256,194.231v8.55h93.731v-15.766
	c0-40.044,12.093-52.196,34.583-81.305"/>
<path d="M256,333.085c-11.396,0-22.792-4.338-31.468-13.014c-3.905-3.905-3.905-10.237,0-14.143c3.906-3.904,10.236-3.904,14.143,0
	c9.553,9.553,25.098,9.553,34.65,0c3.906-3.904,10.236-3.904,14.143,0c3.905,3.905,3.905,10.237,0,14.143
	C278.792,328.747,267.396,333.085,256,333.085z"/>
<path d="M376.2,480.819c-0.65,0-1.311-0.069-1.95-0.199c-0.641-0.13-1.271-0.32-1.87-0.57c-0.61-0.25-1.19-0.56-1.73-0.92
	c-0.55-0.36-1.06-0.78-1.52-1.24c-1.86-1.86-2.93-4.439-2.93-7.07c0-0.649,0.06-1.31,0.189-1.96c0.13-0.63,0.33-1.26,0.58-1.869
	c0.25-0.601,0.55-1.181,0.92-1.721c0.36-0.55,0.78-1.06,1.24-1.52s0.97-0.88,1.52-1.25c0.54-0.36,1.12-0.67,1.73-0.92
	c0.6-0.25,1.229-0.44,1.87-0.57c1.28-0.26,2.609-0.26,3.899,0c0.641,0.13,1.271,0.32,1.87,0.57c0.61,0.25,1.19,0.56,1.73,0.92
	c0.55,0.37,1.06,0.79,1.52,1.25s0.88,0.97,1.24,1.52c0.36,0.54,0.67,1.12,0.92,1.721c0.25,0.609,0.45,1.239,0.57,1.869
	c0.13,0.65,0.2,1.311,0.2,1.96c0,2.631-1.07,5.21-2.931,7.07c-0.46,0.46-0.97,0.88-1.52,1.24c-0.54,0.36-1.12,0.67-1.73,0.92
	c-0.6,0.25-1.229,0.44-1.87,0.57C377.51,480.75,376.85,480.819,376.2,480.819z"/>
<path style="fill:#FF6243;" d="M127.686,105.71c22.491,29.109,34.583,41.26,34.583,81.305v15.766H256v-8.55
	c0-68.253-46.824-98.834-112.267-111.989"/>
<g>
	<circle style="fill:#FFC477;" cx="399.84" cy="77.873" r="31.867"/>
	<circle style="fill:#FFC477;" cx="112.16" cy="77.873" r="31.867"/>
</g>
<path d="M380.822,349.612c-0.584-0.105-1.176-0.158-1.77-0.158h-11.144c1.856-4.446,1.997-9.524,0.192-14.299
	c-2.872-7.594-9.972-12.501-18.088-12.501h-8.106c10.747-16.252,17.009-35.716,17.009-56.616c0,0-0.258-54.409-0.663-58.024
	c0.937-1.522,1.478-3.315,1.478-5.233v-15.766c0-33.516,8.602-44.54,27.448-68.697c0.111-0.143,0.223-0.286,0.335-0.429
	c3.897,1.203,8.036,1.851,12.323,1.851c23.086,0,41.867-18.781,41.867-41.867c0-23.085-18.781-41.866-41.867-41.866
	c-21.844,0-39.834,16.817-41.705,38.183c-24.297,5.552-44.291,13.282-60.464,23.405L286.137,70.9
	c7.26-7.532,11.73-17.77,11.73-29.033C297.867,18.781,279.086,0,256,0s-41.867,18.781-41.867,41.867
	c0,11.263,4.471,21.5,11.73,29.033l-11.53,26.695c-16.173-10.123-36.167-17.854-60.464-23.405
	c-1.871-21.367-19.861-38.183-41.705-38.183c-23.086,0-41.867,18.781-41.867,41.866c0,23.086,18.781,41.867,41.867,41.867
	c4.287,0,8.425-0.648,12.323-1.851c0.112,0.143,0.223,0.286,0.335,0.429c18.847,24.157,27.448,35.182,27.448,68.697v15.766
	c0,1.918,0.541,3.711,1.478,5.233c-0.406,3.615-0.663,58.024-0.663,58.024c0,20.9,6.262,40.365,17.009,56.616h-8.106
	c-8.116,0-15.216,4.907-18.088,12.502c-1.806,4.777-1.664,9.858,0.187,14.298h-11.139c-0.594,0-1.186,0.053-1.77,0.158
	c-29.518,5.307-50.942,30.925-50.942,60.916V502c0,5.522,4.478,10,10,10h331.529c5.522,0,10-4.478,10-10v-91.472
	C431.765,380.537,410.34,354.919,380.822,349.612z M173.084,266.038v-16.409c11.426-1.315,29.635-6.124,43.407-22.625
	c10.747,9.498,27.566,15.916,50.892,19.48c24.347,3.72,51.393,3.674,71.533,3.579v15.975c0,45.72-37.196,82.915-82.916,82.915
	S173.084,311.758,173.084,266.038z M338.623,212.781c0.185,2.261,0.277,4.533,0.277,6.803v10.479
	c-30.135,0.155-87.143,0.166-108.292-17.282H338.623z M173.377,212.781h28.847c-8.913,11.459-20.932,15.388-29.124,16.696v-9.894
	C173.1,217.314,173.192,215.042,173.377,212.781z M339.73,187.016v5.766h-73.723c0.548-52.154,30.898-83.72,95.196-98.773
	c2.127,5.074,5.225,9.644,9.062,13.476C351.195,131.942,339.73,147.407,339.73,187.016z M399.836,56.007
	c12.058,0,21.867,9.81,21.867,21.866c0,12.058-9.81,21.867-21.867,21.867s-21.866-9.81-21.866-21.867S387.779,56.007,399.836,56.007
	z M256,20c12.058,0,21.867,9.81,21.867,21.867S268.057,63.733,256,63.733s-21.867-9.81-21.867-21.866
	C234.133,29.81,243.942,20,256,20z M242.999,81.667c4.094,1.341,8.465,2.066,13.001,2.066c4.537,0,8.907-0.726,13.002-2.066
	l12.188,28.219c-0.09,0.081-0.181,0.161-0.271,0.241c-10.798,9.677-19.115,20.99-24.919,33.859
	c-5.804-12.869-14.121-24.182-24.919-33.859c-0.09-0.081-0.18-0.161-0.27-0.241L242.999,81.667z M90.297,77.873
	c0-12.057,9.81-21.866,21.867-21.866s21.866,9.81,21.866,21.866c0,12.058-9.81,21.867-21.866,21.867
	C100.106,99.74,90.297,89.931,90.297,77.873z M141.734,107.484c3.836-3.832,6.935-8.401,9.062-13.476
	c64.299,15.053,94.648,46.619,95.196,98.773H172.27v-5.766C172.27,147.407,160.805,131.942,141.734,107.484z M187.357,342.654
	c18.225,16.345,42.293,26.299,68.643,26.299s50.418-9.954,68.643-26.299h23.677l-27.896,24.836
	c-2.978,2.651-4.097,6.817-2.847,10.604l12.585,38.122l-47.509-15.774c-4.732-1.571-9.89,0.579-12.106,5.04L256,434.759
	l-14.548-29.277c-2.217-4.461-7.379-6.611-12.106-5.04l-47.509,15.774l12.585-38.122c1.25-3.786,0.131-7.952-2.847-10.604
	l-27.896-24.836L187.357,342.654L187.357,342.654z M411.765,492h-311.53v-11.182H336.2c5.522,0,10-4.478,10-10s-4.478-10-10-10
	H100.235v-50.29c0-20.017,14.102-37.157,33.651-41.074h29.818l9.667,8.606l-10.89,32.988c-2.449,7.11-0.651,14.787,4.703,20.055
	c5.327,5.239,12.933,6.934,19.893,4.446l40.329-13.391l11.188,22.516c3.329,6.658,9.998,10.794,17.405,10.794
	c7.408,0,14.078-4.136,17.416-10.814l11.178-22.495l40.364,13.402c7.035,2.466,14.676,0.723,19.974-4.573
	c5.297-5.297,7.043-12.936,4.577-19.971l-10.88-32.957l9.667-8.606h29.817c19.55,3.917,33.651,21.058,33.651,41.074V492H411.765z"/>
<g>
</g>
<g>
</g>
<g>
</g>
<g>
</g>
<g>
</g>
<g>
</g>
<g>
</g>
<g>
</g>
<g>
</g>
<g>
</g>
<g>
</g>
<g>
</g>
<g>
</g>
<g>
</g>
<g>
</g>
</svg>
