<?xml version="1.0" encoding="iso-8859-1"?>
<!-- Generator: Adobe Illustrator 19.0.0, SVG Export Plug-In . SVG Version: 6.00 Build 0)  -->
<svg version="1.1" id="Capa_1" xmlns="http://www.w3.org/2000/svg" xmlns:xlink="http://www.w3.org/1999/xlink" x="0px" y="0px"
	 viewBox="0 0 512 512" style="enable-background:new 0 0 512 512;" xml:space="preserve">
<path style="fill:#DA5B2C;" d="M437.547,75.897c-3.748-5.594-5.936-12.316-5.936-19.54s2.188-13.946,5.936-19.54H74.453
	c3.748,5.594,5.936,12.316,5.936,19.54s-2.188,13.946-5.936,19.54H437.547z"/>
<polygon style="fill:#2C7B7E;" points="427.797,410.829 256,490.837 84.203,410.829 84.203,75.897 427.797,75.897 "/>
<polygon style="fill:#F6DAB9;" points="124.202,120.712 124.202,385.333 256,446.712 387.798,385.333 387.798,120.712 "/>
<path d="M256,412.587c-1.441,0-2.884-0.312-4.222-0.935l-91.798-42.751c-5.007-2.332-7.175-8.28-4.844-13.287
	s8.277-7.177,13.287-4.843L256,391.556l55.594-25.89c5.006-2.333,10.955-0.163,13.287,4.843c2.331,5.006,0.163,10.955-4.844,13.287
	l-59.815,27.856C258.884,412.275,257.441,412.587,256,412.587z"/>
<path d="M347.8,369.84c-0.65,0-1.31-0.07-1.96-0.2c-0.63-0.13-1.26-0.32-1.87-0.57c-0.6-0.25-1.18-0.56-1.72-0.92
	c-0.55-0.36-1.061-0.78-1.521-1.24s-0.88-0.98-1.25-1.52c-0.359-0.55-0.67-1.13-0.92-1.73s-0.439-1.23-0.569-1.87
	c-0.131-0.65-0.19-1.3-0.19-1.95c0-0.66,0.06-1.31,0.19-1.96c0.13-0.64,0.319-1.27,0.569-1.87s0.561-1.18,0.92-1.73
	c0.37-0.54,0.79-1.05,1.25-1.52c0.46-0.46,0.971-0.87,1.521-1.24c0.54-0.36,1.12-0.67,1.72-0.92c0.61-0.25,1.24-0.44,1.87-0.57
	c1.29-0.26,2.62-0.26,3.91,0c0.64,0.13,1.27,0.32,1.87,0.57c0.609,0.25,1.189,0.56,1.729,0.92c0.55,0.37,1.061,0.78,1.521,1.24
	c0.46,0.47,0.88,0.98,1.239,1.52c0.36,0.55,0.671,1.13,0.921,1.73s0.439,1.23,0.569,1.87c0.13,0.65,0.2,1.3,0.2,1.96
	c0,0.65-0.07,1.3-0.2,1.95c-0.13,0.64-0.319,1.27-0.569,1.87s-0.561,1.18-0.921,1.73c-0.359,0.54-0.779,1.06-1.239,1.52
	s-0.971,0.88-1.521,1.24c-0.54,0.36-1.12,0.67-1.729,0.92c-0.601,0.25-1.23,0.44-1.87,0.57
	C349.109,369.77,348.45,369.84,347.8,369.84z"/>
<rect x="124.2" y="75.897" style="fill:#FFC477;" width="263.6" height="44.815"/>
<g>
	<path style="fill:#FF9929;" d="M45.194,91.552C25.788,91.552,10,75.764,10,56.357c0-19.406,15.788-35.194,35.194-35.194
		s35.194,15.788,35.194,35.194C80.389,75.764,64.601,91.552,45.194,91.552z"/>
	<path style="fill:#FF9929;" d="M466.806,91.552c-19.406,0-35.194-15.788-35.194-35.194s15.788-35.194,35.194-35.194
		S502,36.952,502,56.358S486.212,91.552,466.806,91.552z"/>
</g>
<path d="M466.806,11.163c-13.638,0-25.884,6.072-34.178,15.655H79.372c-8.294-9.583-20.54-15.655-34.178-15.655
	C20.274,11.163,0,31.437,0,56.357s20.274,45.194,45.194,45.194c11.032,0,21.153-3.974,29.008-10.564v319.842
	c0,3.888,2.254,7.424,5.778,9.065l171.798,80.008c1.338,0.624,2.78,0.935,4.222,0.935c1.442,0,2.884-0.312,4.222-0.935
	l171.798-80.008c3.524-1.641,5.778-5.177,5.778-9.065V90.988c7.855,6.591,17.976,10.564,29.008,10.564
	c24.92,0,45.194-20.274,45.194-45.194S491.726,11.163,466.806,11.163z M422.625,46.818c-0.664,3.076-1.014,6.268-1.014,9.54
	s0.35,6.463,1.014,9.54H89.375c0.664-3.076,1.014-6.268,1.014-9.54s-0.35-6.463-1.014-9.54H422.625z M134.202,130.712h243.596
	v248.247L256,435.681l-121.798-56.722V130.712z M377.798,110.712H134.202V85.897h243.596L377.798,110.712L377.798,110.712z
	 M45.194,81.552C31.302,81.552,20,70.25,20,56.357s11.302-25.194,25.194-25.194s25.194,11.302,25.194,25.194
	S59.087,81.552,45.194,81.552z M417.798,404.455L256,479.806L94.202,404.455V85.897h20v299.436c0,3.888,2.254,7.424,5.778,9.065
	l131.798,61.379c1.338,0.624,2.78,0.935,4.222,0.935s2.884-0.312,4.222-0.935l131.798-61.379c3.524-1.641,5.778-5.177,5.778-9.065
	V85.897h20L417.798,404.455L417.798,404.455z M466.806,81.552c-13.893,0-25.194-11.302-25.194-25.194s11.302-25.194,25.194-25.194
	S492,42.465,492,56.357S480.698,81.552,466.806,81.552z"/>
<path style="fill:#A84926;" d="M241.336,264.142c0,33.523-16.679,54.986-16.679,54.986L256,333.06l31.344-13.933
	c0,0-16.679-21.463-16.679-54.986c33.523,0,54.986,16.679,54.986,16.679l13.932-31.343l-13.932-31.343
	c0,0-21.463,16.679-54.986,16.679c0-33.523,16.679-54.986,16.679-54.986L256,165.895l-31.344,13.932
	c0,0,16.679,21.463,16.679,54.986c-33.523,0-54.986-16.679-54.986-16.679l-13.933,31.343l13.933,31.343
	C186.35,280.821,207.813,264.142,241.336,264.142z"/>
<path d="M256,343.06c-1.385,0-2.769-0.288-4.062-0.862l-31.344-13.933c-2.81-1.249-4.889-3.721-5.638-6.703
	c-0.748-2.982-0.083-6.143,1.804-8.571c0.103-0.136,11.157-14.893,13.943-38.229c-23.553,2.764-38.055,13.828-38.219,13.955
	c-2.428,1.888-5.59,2.55-8.57,1.803c-2.982-0.749-5.454-2.828-6.703-5.638l-13.932-31.343c-1.149-2.585-1.149-5.537,0-8.123
	l13.932-31.344c1.249-2.81,3.721-4.889,6.703-5.638c2.979-0.748,6.143-0.083,8.571,1.803c0.136,0.104,14.893,11.158,38.229,13.944
	c-2.764-23.553-13.828-38.054-13.955-38.218c-1.887-2.428-2.552-5.588-1.804-8.571c0.749-2.982,2.828-5.455,5.638-6.703
	l31.344-13.933c2.586-1.149,5.537-1.149,8.123,0l31.344,13.933c2.81,1.249,4.889,3.721,5.638,6.703
	c0.748,2.982,0.083,6.143-1.804,8.571c-0.103,0.136-11.152,14.888-13.941,38.216c23.328-2.789,38.085-13.842,38.252-13.97
	c2.433-1.854,5.6-2.508,8.562-1.75c2.963,0.758,5.435,2.817,6.677,5.612l13.932,31.344c1.149,2.586,1.149,5.538,0,8.123
	l-13.932,31.343c-1.249,2.81-3.721,4.889-6.703,5.638c-2.979,0.748-6.144,0.083-8.57-1.803c-0.137-0.104-14.894-11.157-38.23-13.943
	c2.764,23.553,13.828,38.054,13.955,38.218c1.887,2.428,2.552,5.588,1.804,8.571c-0.749,2.982-2.828,5.455-5.638,6.703
	l-31.344,13.933C258.769,342.772,257.385,343.06,256,343.06z M239.104,314.606L256,322.117l16.896-7.511
	c-5.424-10.436-12.232-28.007-12.232-50.464c0-5.523,4.478-10,10-10c22.458,0,40.029,6.808,50.465,12.232l7.51-16.896l-7.51-16.896
	c-10.436,5.424-28.007,12.232-50.465,12.232c-5.522,0-10-4.477-10-10c0-22.458,6.809-40.029,12.232-50.464L256,176.838
	l-16.896,7.511c5.424,10.436,12.232,28.007,12.232,50.464c0,5.523-4.478,10-10,10c-22.458,0-40.029-6.808-50.465-12.232
	l-7.51,16.896l7.51,16.896c10.436-5.424,28.007-12.232,50.465-12.232c5.522,0,10,4.477,10,10
	C251.336,286.599,244.527,304.17,239.104,314.606z"/>
<g>
</g>
<g>
</g>
<g>
</g>
<g>
</g>
<g>
</g>
<g>
</g>
<g>
</g>
<g>
</g>
<g>
</g>
<g>
</g>
<g>
</g>
<g>
</g>
<g>
</g>
<g>
</g>
<g>
</g>
</svg>
