<?xml version="1.0" encoding="iso-8859-1"?>
<!-- Generator: Adobe Illustrator 19.0.0, SVG Export Plug-In . SVG Version: 6.00 Build 0)  -->
<svg version="1.1" id="Capa_1" xmlns="http://www.w3.org/2000/svg" xmlns:xlink="http://www.w3.org/1999/xlink" x="0px" y="0px"
	 viewBox="0 0 512 512" style="enable-background:new 0 0 512 512;" xml:space="preserve">
<g>
	<polygon style="fill:#A84926;" points="255.999,381.051 232.163,388.339 232.163,502 279.836,502 279.836,388.339 	"/>
	<rect x="232.16" y="10" style="fill:#A84926;" width="47.671" height="33.679"/>
</g>
<rect x="109.429" y="43.679" style="fill:#F6DAB9;" width="293.14" height="50.39"/>
<polygon style="fill:#2C7B7E;" points="402.573,425.864 255.999,381.051 109.425,425.864 109.425,94.064 402.573,94.064 "/>
<polygon style="fill:#F6DAB9;" points="255.999,338.304 148.911,366.82 148.911,133.582 363.088,133.582 363.088,366.82 "/>
<path style="fill:#FF9929;" d="M285.372,232.538c0,0-27.657-28.169-29.373-28.169c-1.715,0-29.374,28.169-29.374,28.169
	l-25.67-11.128l10.902,74.364h88.284l10.902-74.364L285.372,232.538z"/>
<path d="M300.141,305.774h-88.284c-4.962,0-9.174-3.64-9.894-8.55l-10.901-74.364c-0.526-3.59,0.933-7.183,3.813-9.389
	c2.881-2.207,6.729-2.68,10.059-1.236l19.376,8.399c25.914-26.264,27.178-26.266,31.69-26.266c4.512,0,5.776,0.002,31.689,26.266
	l19.376-8.399c3.329-1.442,7.177-0.971,10.059,1.236c2.88,2.206,4.339,5.799,3.813,9.389l-10.901,74.364
	C309.315,302.135,305.104,305.774,300.141,305.774z M220.498,285.774H291.5l7.043-48.047l-9.194,3.985
	c-3.797,1.646-8.214,0.784-11.113-2.169c-7.714-7.856-16.625-16.712-22.237-22.046c-5.613,5.334-14.523,14.189-22.238,22.046
	c-2.899,2.954-7.315,3.813-11.113,2.169l-9.194-3.985L220.498,285.774z"/>
<g>
	<rect x="155.38" y="43.679" style="fill:#B0DBD0;" width="36.2" height="50.39"/>
	<rect x="320.419" y="43.679" style="fill:#B0DBD0;" width="36.2" height="50.39"/>
	<rect x="232.969" y="43.679" style="fill:#B0DBD0;" width="46.06" height="50.39"/>
</g>
<path d="M325.12,175.56c-0.65,0-1.31-0.069-1.95-0.2c-0.64-0.13-1.27-0.319-1.88-0.569c-0.6-0.25-1.18-0.561-1.72-0.92
	c-0.55-0.36-1.06-0.78-1.52-1.24c-0.46-0.46-0.88-0.98-1.24-1.521c-0.36-0.55-0.67-1.13-0.92-1.729s-0.45-1.23-0.58-1.87
	c-0.12-0.64-0.19-1.3-0.19-1.95c0-0.66,0.07-1.31,0.19-1.96c0.13-0.64,0.33-1.27,0.57-1.87c0.25-0.6,0.56-1.18,0.92-1.729
	c0.37-0.54,0.79-1.061,1.25-1.521c0.46-0.46,0.97-0.88,1.52-1.239c0.54-0.36,1.12-0.671,1.72-0.921c0.61-0.25,1.24-0.439,1.88-0.569
	c1.29-0.26,2.61-0.26,3.9,0c0.64,0.13,1.27,0.319,1.87,0.569c0.61,0.25,1.19,0.561,1.73,0.921c0.55,0.359,1.06,0.779,1.52,1.239
	c0.46,0.46,0.88,0.98,1.24,1.521c0.36,0.55,0.67,1.13,0.92,1.729c0.25,0.601,0.44,1.23,0.57,1.87c0.13,0.65,0.2,1.3,0.2,1.96
	c0,0.65-0.07,1.311-0.2,1.95s-0.32,1.271-0.57,1.87s-0.56,1.18-0.92,1.729c-0.36,0.54-0.78,1.061-1.24,1.521
	c-0.46,0.46-0.97,0.88-1.52,1.24c-0.54,0.359-1.12,0.67-1.73,0.92c-0.6,0.25-1.23,0.439-1.87,0.569
	C326.43,175.49,325.769,175.56,325.12,175.56z"/>
<path d="M412.568,43.68c0-5.522-4.477-10-10-10H289.834V10c0-5.522-4.477-10-10-10h-47.671c-5.523,0-10,4.478-10,10v23.68H109.43
	c-5.523,0-10,4.478-10,10l-0.004,382.185c0,3.17,1.503,6.152,4.052,8.039c2.549,1.886,5.841,2.452,8.872,1.524l109.814-33.575V502
	c0,5.522,4.477,10,10,10h47.671c5.523,0,10-4.478,10-10V401.853l109.814,33.575c0.959,0.293,1.944,0.437,2.923,0.437
	c2.116,0,4.207-0.672,5.949-1.961c2.548-1.887,4.052-4.869,4.052-8.039L412.568,43.68z M289.029,84.063V53.68h21.391v30.384
	L289.029,84.063L289.029,84.063z M269.029,84.063h-26.06V53.68h26.06V84.063z M222.969,84.063h-21.391V53.68h21.391V84.063z
	 M392.568,84.063h-25.951V53.68h25.951V84.063z M346.617,53.68v30.384h-16.197V53.68H346.617z M242.164,20h27.671v13.68h-27.671V20z
	 M181.578,53.68v30.384h-16.197V53.68H181.578z M145.382,53.68v30.384H119.43V53.68H145.382z M269.834,492h-27.671v-96.262
	l13.835-4.23l13.835,4.23L269.834,492L269.834,492z M258.924,371.487c-0.953-0.291-1.938-0.437-2.924-0.437
	c-0.986,0-1.971,0.146-2.924,0.437l-133.65,40.862V104.065h273.147V412.35L258.924,371.487z"/>
<path d="M363.088,123.582H148.911c-5.523,0-10,4.478-10,10V366.82c0,3.106,1.443,6.036,3.906,7.929
	c2.463,1.894,5.665,2.536,8.667,1.734l104.515-27.831l104.515,27.831c0.849,0.227,1.713,0.337,2.573,0.337
	c2.181,0,4.328-0.714,6.094-2.071c2.463-1.893,3.906-4.822,3.906-7.929V133.582C373.088,128.06,368.61,123.582,363.088,123.582z
	 M353.088,353.809l-94.515-25.168c-0.843-0.225-1.708-0.337-2.573-0.337c-0.865,0-1.73,0.112-2.573,0.337l-94.515,25.168V175.557
	h126.722c5.523,0,10-4.478,10-10s-4.477-10-10-10H158.911v-11.975h194.177L353.088,353.809L353.088,353.809z"/>
<g>
</g>
<g>
</g>
<g>
</g>
<g>
</g>
<g>
</g>
<g>
</g>
<g>
</g>
<g>
</g>
<g>
</g>
<g>
</g>
<g>
</g>
<g>
</g>
<g>
</g>
<g>
</g>
<g>
</g>
</svg>
