<?xml version="1.0" encoding="iso-8859-1"?>
<!-- Generator: Adobe Illustrator 19.0.0, SVG Export Plug-In . SVG Version: 6.00 Build 0)  -->
<svg version="1.1" id="Capa_1" xmlns="http://www.w3.org/2000/svg" xmlns:xlink="http://www.w3.org/1999/xlink" x="0px" y="0px"
	 viewBox="0 0 512.002 512.002" style="enable-background:new 0 0 512.002 512.002;" xml:space="preserve">
<g>
	<path style="fill:#DA5B2C;" d="M256.001,146.767H64.56c-11.296,72.393-11.296,146.073,0,218.466h191.441"/>
	<polyline style="fill:#DA5B2C;" points="256.001,10 95.804,10 77.902,81.515 256.001,81.515 	"/>
	<polyline style="fill:#DA5B2C;" points="256.001,430.485 77.902,430.485 95.804,502 256.001,502 	"/>
</g>
<g>
	<path style="fill:#FF9929;" d="M256.001,365.233h191.441c11.296-72.393,11.296-146.073,0-218.466H256.001"/>
	<polyline style="fill:#FF9929;" points="256.001,81.515 434.1,81.515 416.198,10 256.001,10 	"/>
	<polyline style="fill:#FF9929;" points="256.001,502 416.198,502 434.1,430.485 256.001,430.485 	"/>
</g>
<polygon style="fill:#C6C5CA;" points="458.14,146.767 53.862,146.767 64.794,81.515 447.208,81.515 "/>
<path d="M383.021,123.49c-0.649,0-1.31-0.07-1.96-0.2c-0.63-0.13-1.26-0.32-1.87-0.57c-0.6-0.25-1.18-0.56-1.72-0.92
	c-0.55-0.36-1.06-0.78-1.52-1.24s-0.881-0.97-1.25-1.52c-0.36-0.54-0.67-1.12-0.92-1.73c-0.25-0.6-0.44-1.23-0.57-1.87
	s-0.19-1.3-0.19-1.95s0.061-1.31,0.19-1.96c0.13-0.63,0.32-1.26,0.57-1.87c0.25-0.6,0.56-1.18,0.92-1.72
	c0.369-0.55,0.79-1.06,1.25-1.52s0.97-0.88,1.52-1.25c0.54-0.36,1.12-0.67,1.72-0.92c0.61-0.25,1.24-0.44,1.87-0.56
	c1.29-0.26,2.62-0.27,3.91,0c0.64,0.12,1.271,0.31,1.87,0.56c0.61,0.25,1.19,0.56,1.729,0.92c0.551,0.37,1.061,0.79,1.521,1.25
	s0.88,0.97,1.24,1.52c0.359,0.54,0.67,1.12,0.92,1.72c0.25,0.61,0.439,1.24,0.569,1.87c0.131,0.65,0.2,1.31,0.2,1.96
	c0,2.63-1.069,5.21-2.93,7.07c-0.46,0.46-0.97,0.88-1.521,1.24c-0.539,0.36-1.119,0.67-1.729,0.92c-0.6,0.25-1.23,0.44-1.87,0.57
	C384.331,123.42,383.671,123.49,383.021,123.49z"/>
<polygon style="fill:#C6C5CA;" points="53.862,365.233 458.14,365.233 447.208,430.485 64.794,430.485 "/>
<g>
	<polygon style="fill:#DA5B2C;" points="341.176,81.515 323.274,10 256.001,10 256.001,81.515 	"/>
	<path style="fill:#DA5B2C;" d="M256.001,365.233h98.517c11.296-72.393,11.296-146.073,0-218.466h-98.517V365.233z"/>
	<polygon style="fill:#DA5B2C;" points="256.001,430.485 256.001,502 323.274,502 341.176,430.485 	"/>
</g>
<g>
	<path style="fill:#A84926;" d="M256.001,146.767h-98.517c-11.296,72.393-11.296,146.073,0,218.466h98.517V146.767z"/>
	<polygon style="fill:#A84926;" points="256.001,81.515 256.001,10 188.728,10 170.826,81.515 	"/>
	<polygon style="fill:#A84926;" points="170.826,430.485 188.728,502 256.001,502 256.001,430.485 	"/>
</g>
<path d="M128.98,408.51c-0.649,0-1.31-0.06-1.949-0.19c-0.641-0.13-1.271-0.32-1.87-0.57c-0.61-0.25-1.19-0.56-1.73-0.92
	c-0.55-0.37-1.06-0.79-1.52-1.25s-0.88-0.97-1.24-1.52c-0.36-0.54-0.67-1.12-0.92-1.72c-0.25-0.61-0.44-1.24-0.57-1.87
	c-0.13-0.65-0.2-1.31-0.2-1.96c0-2.63,1.07-5.21,2.931-7.07c0.46-0.46,0.97-0.88,1.52-1.24c0.54-0.36,1.12-0.67,1.73-0.92
	c0.6-0.25,1.229-0.44,1.87-0.57c1.289-0.26,2.619-0.26,3.909,0c0.63,0.13,1.261,0.32,1.87,0.57c0.601,0.25,1.181,0.56,1.721,0.92
	c0.55,0.36,1.06,0.78,1.52,1.24c1.86,1.86,2.93,4.44,2.93,7.07c0,0.65-0.06,1.31-0.189,1.96c-0.13,0.63-0.32,1.26-0.57,1.87
	c-0.25,0.6-0.56,1.18-0.92,1.72c-0.37,0.55-0.79,1.06-1.25,1.52s-0.97,0.88-1.52,1.25c-0.54,0.36-1.12,0.67-1.721,0.92
	c-0.609,0.25-1.24,0.44-1.87,0.57C130.291,408.45,129.631,408.51,128.98,408.51z"/>
<path d="M459.022,355.273c9.202-65.934,9.202-132.612,0-198.546c2.611-0.231,5.041-1.481,6.75-3.5
	c1.9-2.245,2.716-5.212,2.229-8.113l-10.932-65.252c-0.807-4.818-4.978-8.348-9.862-8.348h-5.302L425.899,7.572
	C424.785,3.122,420.786,0,416.198,0H95.804c-4.588,0-8.587,3.122-9.701,7.572L70.096,71.515h-5.302c-4.885,0-9.056,3.53-9.862,8.348
	L44,145.115c-0.486,2.901,0.329,5.868,2.229,8.113c1.709,2.019,4.139,3.269,6.75,3.5c-9.202,65.934-9.202,132.612,0,198.546
	c-2.611,0.231-5.041,1.481-6.75,3.5c-1.9,2.245-2.716,5.212-2.229,8.113l10.932,65.252c0.807,4.818,4.978,8.348,9.862,8.348h5.302
	l16.006,63.943c1.114,4.45,5.113,7.572,9.701,7.572h320.395c4.588,0,8.587-3.122,9.701-7.572l16.006-63.943h5.302
	c4.885,0,9.056-3.53,9.862-8.348l10.932-65.252c0.486-2.901-0.329-5.868-2.229-8.113
	C464.064,356.754,461.634,355.504,459.022,355.273z M73.173,156.767h72.726c-9.195,65.908-9.195,132.559,0,198.467H73.173
	C63.712,289.339,63.712,222.661,73.173,156.767z M166.098,156.767h79.903v198.467h-79.903
	C156.637,289.339,156.637,222.661,166.098,156.767z M266.001,156.767h79.903c9.461,65.894,9.461,132.573,0,198.467h-79.903V156.767z
	 M366.104,156.767h72.726c9.46,65.894,9.46,132.573,0,198.467h-72.726C375.298,289.325,375.298,222.675,366.104,156.767z
	 M65.677,136.767l2.225-13.279h275.117c5.522,0,10-4.477,10-10s-4.478-10-10-10H71.252l2.006-11.973h365.486l7.581,45.252H65.677z
	 M421.288,71.515h-72.306L336.087,20h72.306L421.288,71.515z M328.364,71.515h-62.363V20h49.468L328.364,71.515z M246.001,20v51.515
	h-62.363L196.534,20H246.001z M103.609,20h72.308l-12.896,51.515H90.714L103.609,20z M446.325,375.233l-2.225,13.279H168.983
	c-5.522,0-10,4.477-10,10s4.478,10,10,10H440.75l-2.006,11.973H73.258l-7.581-45.252L446.325,375.233L446.325,375.233z
	 M90.714,440.485h72.308L175.917,492h-72.308L90.714,440.485z M183.638,440.485h62.363V492h-49.467L183.638,440.485z M266.001,492
	v-51.515h62.363L315.469,492H266.001z M408.393,492h-72.306l12.895-51.515h72.306L408.393,492z"/>
<circle style="fill:#F6DAB9;" cx="309.781" cy="256" r="28.539"/>
<path d="M309.778,294.539c-21.251,0-38.539-17.288-38.539-38.539s17.288-38.539,38.539-38.539S348.317,234.75,348.317,256
	S331.029,294.539,309.778,294.539z M309.778,237.461c-10.223,0-18.539,8.316-18.539,18.539c0,10.223,8.316,18.539,18.539,18.539
	s18.539-8.316,18.539-18.539S320.001,237.461,309.778,237.461z"/>
<g>
</g>
<g>
</g>
<g>
</g>
<g>
</g>
<g>
</g>
<g>
</g>
<g>
</g>
<g>
</g>
<g>
</g>
<g>
</g>
<g>
</g>
<g>
</g>
<g>
</g>
<g>
</g>
<g>
</g>
</svg>
