<svg id="icon" height="512" viewBox="0 0 340 340" width="512" xmlns="http://www.w3.org/2000/svg"><path d="m129.453 144.469s-28.65-40.648-10.53-76.154 53.377-45.79 53.377-45.79a38.013 38.013 0 0 0 13.6-8.275 2.222 2.222 0 0 1 3.768 1.562c.127 6.594-.984 17.869-8.549 27.527a20.223 20.223 0 0 0 -3.367 6.787c-2.8 9.524 9.985 16.008 15.96 8.081a20.217 20.217 0 0 0 3.192-6.339 2.219 2.219 0 0 1 3.892-.656c6.185 8.215 17.9 30.865-4.5 66.077l-7.347 27.18z" fill="#fe5d77"/><path d="m127.903 138.913h57.636v25.139h-57.636z" fill="#342a35"/><g fill="#dce2f9"><path d="m188.131 115.632h15.981c-1.979 10.922-5.827 22.649-9.18 31.646-3.728 4.2-12.964 4.938-16.636 3.052a280.848 280.848 0 0 0 9.835-34.698z"/><path d="m145.69 115.632 2.491 35.682c4.309 2.41 13.47 3.133 17.08 0l2.491-35.684z"/><path d="m125.311 115.632h-15.981c1.941 10.713 5.68 22.2 8.987 31.125 3.912 4.725 12.446 5.929 16.81 3.521a281.105 281.105 0 0 1 -9.816-34.646z"/></g><path d="m214.278 40.677s-10.135-9.022-.1-16.973a39.135 39.135 0 0 0 9.276-10.275 2.22 2.22 0 0 1 3.821.038c3.748 6.457 9.025 20.805-12.997 27.21z" fill="#fe5d77"/><path d="m163.43 59.257c.049 4.909 2.134 10.545 7.5 13.176a11.838 11.838 0 0 1 6.4 12.4c-1.287 8.719-5.731 19.678-19.8 20.873-23.392 1.986-16.2-25.267-16.2-25.267a44.155 44.155 0 0 1 18.292-23.222 2.465 2.465 0 0 1 3.808 2.04z" fill="#fff"/><circle cx="224.71" cy="57.579" fill="#fe5d77" r="3.559"/><path d="m194.931 147.277a113.778 113.778 0 0 1 -16.637 3.053 105.291 105.291 0 0 1 -4.178 9.841h15.648c1.128-2.612 3.049-7.21 5.167-12.894z" fill="#a3acce"/><path d="m156.721 151.482q-4.547 0-8.54-.168l.619 8.857h15.843l.618-8.855q-4.03.161-8.54.166z" fill="#a3acce"/><path d="m135.129 150.278a87.708 87.708 0 0 1 -16.812-3.521c2.2 5.924 4.2 10.723 5.361 13.414h15.648a105.423 105.423 0 0 1 -4.197-9.893z" fill="#a3acce"/><path d="m143.021 207.617 5.428 109.683a14.249 14.249 0 0 0 1.173 5.809 7.608 7.608 0 0 0 13.916.01 15.409 15.409 0 0 0 1.456-5.819l5.427-109.679z" fill="#dce2f9"/><path d="m168.021 252.283a33.781 33.781 0 0 1 -22.6 0 5.659 5.659 0 0 0 -7.6 5.307v3.8a11.387 11.387 0 0 0 6.158 10.2c5.914 2.978 19.563 2.978 25.476 0a11.386 11.386 0 0 0 6.159-10.2v-3.8a5.66 5.66 0 0 0 -7.593-5.307z" fill="#a3acce"/><path d="m144.165 230.744c12.5 1.211 20.99-2.107 25.335-4.511l.921-18.616h-27.4z" fill="#a3acce"/><path d="m188.123 179.958h-62.8s-1.305 36.375 31.4 36.375 31.4-36.375 31.4-36.375z" fill="#7784b2"/><path d="m170.421 179.848v18.3h12.1a7.864 7.864 0 0 0 7.863-7.863v-11.496z" fill="#dce2f9"/><path d="m143.021 179.848v18.3h-12.1a7.864 7.864 0 0 1 -7.864-7.863v-11.496z" fill="#dce2f9"/><path d="m191.85 157.251c-16.3 2.021-45.314 3.282-70.257 0-5.234-.689-9.621 3.882-8.5 8.82a44.614 44.614 0 0 0 2.517 7.825 12.621 12.621 0 0 0 8.937 7.214c12.736 2.821 32.175 2.762 32.175 2.762s19.439.059 32.176-2.762a12.621 12.621 0 0 0 8.936-7.214 44.53 44.53 0 0 0 2.517-7.825c1.119-4.938-3.263-9.471-8.501-8.82z" fill="#dce2f9"/><circle cx="156.721" cy="172.005" fill="#7784b2" r="3.559"/><circle cx="133.458" cy="170.21" fill="#7784b2" r="3.559"/><circle cx="179.985" cy="170.21" fill="#7784b2" r="3.559"/></svg>