<svg id="icon" height="512" viewBox="0 0 340 340" width="512" xmlns="http://www.w3.org/2000/svg"><path d="m213.965 131.391c16.136-1.251 37.726-7.146 54.656-27.019l8.285 16.557c-17.663 40.228-47.1 50.167-86.065 35.626z" fill="#ffc58d"/><path d="m282.244 82.642a92.372 92.372 0 0 1 -13.634 21.721c.589 8.277.034 28.947-17.75 42.854a46.622 46.622 0 0 1 -30.609 9.71 61.011 61.011 0 0 1 -20.969-4.518c7.756-5.51 12.253-14.418 14.683-21.019a85.451 85.451 0 0 1 -23.123-1.142c-10.9 31.853 12.33 42.592 12.33 42.592a111.314 111.314 0 0 0 30.267-2.3l.015.006c44.808-10.048 56.782-47.224 56.782-47.224v-40.68z" fill="#e0814d"/><path d="m71.035 235.875c-4.377 13.646-9.075 30.912-11.268 47.59a27.65 27.65 0 0 0 12.8 27.085c8.145 5.1 24.259 10.539 41.256 13.441l4.034-31.241s-10.887-1.471-19.15-6.078c-3.809-2.124-5.165-7.02-4.44-11.321.54-3.207 1.37-7.374 2.612-12.057l5.61-40.224z" fill="#ffc58d"/><path d="m80.558 209.549s-4.558 10.829-9.523 26.326c7.212.139 18.939-.524 26.6-5.5 0 0-.944 17.283-12.6 29.972a2.04 2.04 0 0 0 1.4 3.433 58.38 58.38 0 0 0 10.455-.48c2.552-9.626 6.838-21.421 13.942-31.522-5.165-13.951-15.882-20.528-30.274-22.229z" fill="#e0814d"/><path d="m138.617 271.72c.831 9.471 1.486 20.954 1.486 33.627h88.254a255.76 255.76 0 0 0 -9.445-81.315l-46.2-11.965z" fill="#ffc58d"/><path d="m158.847 328.606h69.51v-23.259h-68.095c-3.706 5.792-3.613 13.888-1.415 23.259z" fill="#655baa"/><path d="m197.525 176.72c-26.725 19.034-52.325 41.406-62.325 68.167 0 0 4.905 34.613 4.905 60.46h20.159c-.435-13.931-1.115-26.578-1.717-36.1a17.643 17.643 0 0 1 4.933-13.455 55.751 55.751 0 0 0 14.945-28.392s20.286 4.5 40.482-3.362c-4.647-15.922-11.449-32.32-21.382-47.318z" fill="#e0814d"/><path d="m306.981 20.683h-37.742a3.5 3.5 0 0 0 0 7h37.742a3.5 3.5 0 0 0 0-7z" fill="#7f4242"/><path d="m304.522 32.679h-32.822a3.5 3.5 0 0 0 0 7h32.822a3.5 3.5 0 0 0 0-7z" fill="#7f4242"/><path d="m95.39 160.358a43.067 43.067 0 0 0 -7.466 5.519 36.823 36.823 0 0 0 -11.138 21.491c-1.3 8.236-5.447 21.458-18.624 28.051a2.031 2.031 0 0 0 -.2 3.5c4.921 3.223 16.662 8.259 37.146 2.451a66.721 66.721 0 0 1 -10.687 30.574 2.042 2.042 0 0 0 1.547 3.193c7.754.47 26.548-.734 38.7-21.1a49.948 49.948 0 0 1 2.482 28.963 2.035 2.035 0 0 0 2.79 2.309c10.067-4.342 36.845-19.2 39.069-55.041 0 0 32.585 18.879 62.746-6.571a2.042 2.042 0 0 0 -.463-3.408 48.5 48.5 0 0 1 -23.008-22.2s15.444-6.513 22.778-25.268a2.031 2.031 0 0 0 -2.036-2.751c-6.391.413-21.5.433-34.89-6.825 0 0 11.651-12.205 11.761-28.655a2.045 2.045 0 0 0 -2.968-1.853 62.614 62.614 0 0 1 -31.175 6.436 39.068 39.068 0 0 0 -18.2 3.664c-10.246 24.663-28.134 39.163-58.164 37.521z" fill="#655baa"/><path d="m132.6 154.86s-19.756-4.705-37.2 5.5c3.885 3.713 19.8 16.674 41.534 3.936 18.74-10.983 18.137-31.666 16.627-41.449-12.885 5.921-22.64 18.253-20.961 32.013z" fill="#3e3a6b"/><path d="m118.549 169.758c7.446 11.02 20.463 23.559 42.045 26.642 0 0 .726-24.453-11.008-45a73.021 73.021 0 0 0 -31.037 18.358z" fill="#e0814d"/><path d="m80.5 123.441-5.932 6.15a13.4 13.4 0 0 0 -.791 17.958 13.4 13.4 0 0 0 16.751 3.218l7.828-4.276z" fill="#ef837c"/><path d="m120.7 95.711 7.993-3.02a13.4 13.4 0 0 1 16.807 6.372 13.4 13.4 0 0 1 -3.664 16.659l-7.022 5.5z" fill="#ef837c"/><path d="m136.912 136.012-27.119 15.658a66.688 66.688 0 0 0 8.757 18.087 36.6 36.6 0 0 0 18.374-5.463 33.182 33.182 0 0 0 12.659-12.894 56.063 56.063 0 0 0 -12.671-15.388z" fill="#e0814d"/><path d="m83.183 134.569a165.331 165.331 0 0 0 15.881 17.908 25.4 25.4 0 0 0 32.562 2.181 25.344 25.344 0 0 0 9.318-27.881 103.673 103.673 0 0 0 -10.955-24.594c-17.859 6.038-33.507 16.737-46.806 32.386z" fill="#ffcac0"/><path d="m317.344 196.6c-2.145-4.407-4.168-8.876-5.9-13.461-7.065-18.691-12.237-35.722-13.625-46.3-.649-4.944.989-11.343.989-16.329v-71.944l3.836-28.586a7.651 7.651 0 0 0 -7.583-8.669h-14.4a7.651 7.651 0 0 0 -7.582 8.677l3.827 28.31v72.202c0 4.986.648 13.921 0 18.864-1.388 10.582-5.571 25.077-12.636 43.768-1.733 4.585-3.756 9.054-5.9 13.461-4.521 9.286-18.09 40.908-11.847 74.807 2.656 14.428 9.686 23.256 17.212 28.656a41.558 41.558 0 0 0 48.247 0c7.525-5.4 14.555-14.228 17.212-28.656 6.24-33.895-7.329-65.517-11.85-74.8z" fill="#d07a76"/><path d="m277.414 84.72h21.393v124.829h-21.393z" fill="#7f4242"/><circle cx="287.856" cy="227.78" fill="#342a35" r="23.768"/><path d="m287.856 274.215c-1.314 0-2.38-1.344-2.38-3v-188.573c0-1.657 1.066-3 2.38-3s2.38 1.343 2.38 3v188.573c0 1.656-1.065 3-2.38 3z" fill="#fcf2f2"/><path d="m276.906 274.215c-1.315 0-2.38-1.344-2.38-3v-188.573c0-1.657 1.065-3 2.38-3s2.38 1.343 2.38 3v188.573c0 1.656-1.066 3-2.38 3z" fill="#fcf2f2"/><path d="m298.807 274.215c-1.314 0-2.38-1.344-2.38-3v-188.573c0-1.657 1.066-3 2.38-3s2.38 1.343 2.38 3v188.573c0 1.656-1.065 3-2.38 3z" fill="#fcf2f2"/><circle cx="106.234" cy="132.772" fill="#ef837c" r="3.559"/><circle cx="120.698" cy="123.832" fill="#ef837c" r="3.559"/><path d="m83.183 134.569 46.8-32.381a67.463 67.463 0 0 0 -6.963-9.27l-47.329 31.258s2.849 4.386 7.492 10.393z" fill="#ef837c"/><path d="m117.016 99.353 7.821-5.394a5.812 5.812 0 0 0 2.286-6.451 52.091 52.091 0 0 1 -1.767-8.128 14.659 14.659 0 0 1 24.13-13.088 47.7 47.7 0 0 1 8.373 9.438l6.217-3.864s-2.289-17.045-12.2-29.2c-16.155-19.815-48.466-9.192-50.452 16.3-.813 10.396 2.649 23.846 15.592 40.387z" fill="#3e3a6b"/><path d="m90.772 117.452-14.56 10.04a9.581 9.581 0 0 1 -10.036.464c-6.651-3.616-18.921-7.282-28 7.442-8.055 13.07-5.465 31.793-5.465 31.793l-7.757 1.946s-14.286-32.523-1.368-55.776c0 0 17.478-34.2 56.384-14.134z" fill="#3e3a6b"/><path d="m79.31 107.8c-6.8-6.4-14.967-15.4-19.541-25.167-8.824-18.841-12.163-28.857-33.15-9.3l-7.87-7.393s4.171-34.952 42.689-31.72c16.867 1.415 30.644 17.362 40.262 33.12 10.919 21.078.056 38.86-22.39 40.46z" fill="#655baa"/><g fill="#ffc58d"><circle cx="18.749" cy="73.087" r="9.555"/><circle cx="163.161" cy="78.912" r="9.555"/><circle cx="29.692" cy="173.849" r="9.555"/></g><path d="m79.311 107.8a127.788 127.788 0 0 0 11.461 9.653l26.244-18.1a185.216 185.216 0 0 0 -15.316-32.011c.052.139 10.9 28.613-22.389 40.458z" fill="#3e3a6b"/><rect fill="#7f4242" height="13.266" rx="4.939" width="36.583" x="269.565" y="267.77"/><path d="m268.364 48.175h-5.18a7.073 7.073 0 0 0 -6.916 7.222v16.61a7.074 7.074 0 0 0 6.916 7.223h9.059z" fill="#ef837c"/><path d="m296.421 90.783h-17.129a10.928 10.928 0 0 1 -10.928-10.928v-.625a9.854 9.854 0 0 0 0-7v-7.119a9.849 9.849 0 0 0 0-7v-9.936h28.057a10.927 10.927 0 0 1 10.927 10.925v20.755a10.928 10.928 0 0 1 -10.927 10.928z" fill="#ffcac0"/><path d="m288.486 58.111h-20.122v7h20.122a3.5 3.5 0 0 0 0-7z" fill="#ef837c"/><path d="m288.486 72.23h-20.122v7h20.122a3.5 3.5 0 0 0 0-7z" fill="#ef837c"/><path d="m140.1 324.622a3.984 3.984 0 0 0 3.983 3.984h14.761a17.079 17.079 0 0 0 1.755-7.025l-.34-16.234h-20.159z" fill="#3e3a6b"/><path d="m117.861 292.75 20.031 2.429a12.254 12.254 0 0 1 10.6 10.085l2.12 12.31a8.9 8.9 0 0 1 -9.686 11.032s-15.961-1.706-27.1-4.615c.001 0-4.033-16.291 4.035-31.241z" fill="#ffcac0"/></svg>