<svg id="Layer_1" height="512" viewBox="0 0 64 64" width="512" xmlns="http://www.w3.org/2000/svg" data-name="Layer 1"><rect fill="#b5806b" height="6.55" rx="2" transform="matrix(-1 0 0 -1 64 113.45)" width="42.62" x="10.69" y="53.45"/><rect fill="#b5806b" height="6.55" rx="2" width="42.62" x="10.69" y="4"/><path d="m35.2 36.47a5 5 0 0 1 0-8.94 18.81 18.81 0 0 0 5.69-4.39 134.51 134.51 0 0 1 -17.83-.05 18.9 18.9 0 0 0 5.75 4.44 5 5 0 0 1 0 8.94 17.59 17.59 0 0 0 -9.71 13h25.8a17.58 17.58 0 0 0 -9.7-13z" fill="#f4a519"/><rect fill="#d4977c" height="6.55" rx="2" transform="matrix(-1 0 0 -1 60.63 113.45)" width="39.24" x="10.69" y="53.45"/><rect fill="#d4977c" height="6.55" rx="2" width="39.24" x="10.69" y="4"/><path d="m33.74 36.47a5.21 5.21 0 0 1 -2.22-4.47 5.22 5.22 0 0 1 2.22-4.47 16.25 16.25 0 0 0 4.67-4.39 90.35 90.35 0 0 1 -14.61-.05 16.28 16.28 0 0 0 4.7 4.44 5.22 5.22 0 0 1 2.22 4.47 5.21 5.21 0 0 1 -2.22 4.47c-3.2 2-6.92 5.83-7.95 13h21.14c-1.02-7.17-4.75-11-7.95-13z" fill="#ffce62"/><path d="m50.19 11.55h1.12a3 3 0 0 0 3-3v-2.55a3 3 0 0 0 -3-3h-13.07a1 1 0 0 0 0 2h13.07a1 1 0 0 1 1 1v2.55a1 1 0 0 1 -1 1h-38.62a1 1 0 0 1 -1-1v-2.55a1 1 0 0 1 1-1h18.55a1 1 0 0 0 0-2h-18.55a3 3 0 0 0 -3 3v2.55a3 3 0 0 0 3 3h1.11a27.26 27.26 0 0 0 .7 5.45 1 1 0 0 0 1.21.74 1 1 0 0 0 .74-1.21 24.74 24.74 0 0 1 -.66-5h32.42c-.29 8.47-4.32 14.87-11.64 18.67a2 2 0 0 0 0 3.6c7.32 3.8 11.35 10.25 11.64 18.65h-32.42c.3-8.4 4.33-14.85 11.65-18.65a2 2 0 0 0 0-3.6 21.49 21.49 0 0 1 -8.44-7.53 1 1 0 0 0 -1.38-.31 1 1 0 0 0 -.45.62 1 1 0 0 0 .13.76 23.68 23.68 0 0 0 9.21 8.26 0 0 0 0 1 0 0c-4.64 2.36-12.32 8.11-12.7 20.42h-1.12a3 3 0 0 0 -3 3v2.58a3 3 0 0 0 3 3h13.07a1 1 0 1 0 0-2h-13.07a1 1 0 0 1 -1-1v-2.55a1 1 0 0 1 1-1h38.62a1 1 0 0 1 1 1v2.55a1 1 0 0 1 -1 1h-18.55a1 1 0 1 0 0 2h18.55a3 3 0 0 0 3-3v-2.55a3 3 0 0 0 -3-3h-1.12c-.38-12.31-8.06-18.06-12.7-20.45a0 0 0 0 0 0 0c4.64-2.38 12.32-8.14 12.7-20.45z"/><path d="m16.75 21.56a.9.9 0 0 0 .4-.09 1 1 0 0 0 .51-1.32 1 1 0 0 0 -1.32-.51 1 1 0 0 0 -.51 1.36 1 1 0 0 0 .92.56z"/><circle cx="28.76" cy="60" r="1"/><circle cx="35.24" cy="4" r="1"/><path d="m40 39.84a1 1 0 0 0 .67 1.74 1 1 0 0 0 .68-.26 1 1 0 0 0 .32-.69 1 1 0 0 0 -.25-.71 0 0 0 0 0 0 0 1 1 0 0 0 -1.42-.08z"/><path d="m28.35 28.42a4 4 0 0 1 2.11 2.87 1 1 0 0 0 1 .82 6 6 0 0 0 3.25 5.25 18.78 18.78 0 0 1 3.1 2 1 1 0 0 0 .62.22 1 1 0 0 0 .78-.39 1 1 0 0 0 -.16-1.4 22 22 0 0 0 -3.41-2.17 4 4 0 0 1 0-7.16 19.92 19.92 0 0 0 6-4.62 1 1 0 0 0 -.82-1.65 136 136 0 0 1 -17.7-.06 1 1 0 0 0 -.82 1.65 19.74 19.74 0 0 0 6.05 4.64zm10-4.14a18.57 18.57 0 0 1 -3.57 2.36 6 6 0 0 0 -2.78 2.9 5.94 5.94 0 0 0 -2.74-2.9 18.65 18.65 0 0 1 -3.62-2.4c4.3.21 8.55.23 12.67.04z"/><path d="m29.78 34.34a1 1 0 0 0 -.17.74 1 1 0 0 0 .41.65 1 1 0 0 0 .58.19 1 1 0 0 0 .82-.42 1 1 0 0 0 -.25-1.4 1 1 0 0 0 -1.39.24z"/><path d="m43.85 43.35a1 1 0 0 0 -1.36-.4 1 1 0 0 0 -.48.6 1 1 0 0 0 .08.76 16.36 16.36 0 0 1 1.58 4.14h-23.34a16.41 16.41 0 0 1 8.42-10.82 1 1 0 0 0 .4-1.36 1 1 0 0 0 -1.36-.39 18.45 18.45 0 0 0 -9.67 13.4 1 1 0 0 0 1 1.17h25.78a1 1 0 0 0 .76-.36.92.92 0 0 0 .22-.81 19.26 19.26 0 0 0 -2.03-5.93z"/></svg>