<svg id="Capa_1" enable-background="new 0 0 508.84 508.84" height="512" viewBox="0 0 508.84 508.84" width="512" xmlns="http://www.w3.org/2000/svg"><g><g><path d="m203.733 275.401s-4.483-50.092 8.789-106.957c1.614-6.914 18.13-4.009 20.309-11.046 1.867-6.031-15.242-14.025-8.346-28.013 31.313-63.507 81.076-128.065 199.556-121.401 0 0-8.505 99.839-94.992 172.867-16.67 14.076-33.736-.312-40.844 5.564-6.181 5.11 8.834 22.327 2.873 27.126-60.954 49.069-87.345 61.86-87.345 61.86z" fill="#ad7fdd"/></g></g><g><g><path d="m392.677 7.919c.457.024.905.039 1.364.064 0 0-8.505 99.839-94.992 172.867-2.125 1.795-4.257 3.122-6.374 4.092 8.464-.31 22.552 7.579 36.374-4.092 86.487-73.027 94.992-172.867 94.992-172.867-11.038-.62-21.478-.621-31.364-.064z" fill="#9d66d6"/></g></g><g><g><path d="m288.092 186.526c-12.745 3.045-20.752-3.845-26.294.737-6.181 5.11 5.241 21.478-.719 26.277-24.967 20.1-44.127 34.105-58.058 43.645.105 11.419.713 18.216.713 18.216s26.391-12.791 87.346-61.862c5.918-4.765-8.842-21.776-2.988-27.013z" fill="#9d66d6"/></g></g><g><g><path d="m236.941 367.629h-93.619c-9.499 0-17.2-7.701-17.2-17.2v-23.865c0-9.499 7.701-17.2 17.2-17.2h93.619c9.499 0 17.2 7.701 17.2 17.2v23.865c0 9.499-7.701 17.2-17.2 17.2z" fill="#596c76"/></g></g><g><g><path d="m236.941 309.364h-30c9.499 0 17.2 7.701 17.2 17.2v23.865c0 9.499-7.701 17.2-17.2 17.2h30c9.499 0 17.2-7.701 17.2-17.2v-23.865c0-9.499-7.701-17.2-17.2-17.2z" fill="#465a61"/></g></g><g><g><path d="m137.992 367.629h104.278v33.945h-104.278z" fill="#8d9ca8"/></g></g><g><g><path d="m212.271 367.629h30v33.945h-30z" fill="#7a8c98"/></g></g><g><g><path d="m279.16 501.34h-178.057c-9.005 0-16.304-7.3-16.304-16.304v-29.583c0-29.756 24.122-53.878 53.878-53.878h102.91c29.756 0 53.878 24.122 53.878 53.878v29.583c-.001 9.004-7.301 16.304-16.305 16.304z" fill="#596c76"/></g></g><g><g><path d="m241.586 401.574h-30c29.756 0 53.878 24.122 53.878 53.878v29.584c0 9.005-7.3 16.304-16.305 16.304h30c9.005 0 16.305-7.299 16.305-16.304v-29.584c0-29.756-24.122-53.878-53.878-53.878z" fill="#465a61"/></g></g><g><path d="m429.705 3.068c-1.328-1.531-3.22-2.458-5.243-2.572-59.814-3.361-107.258 10.35-145.045 41.925-3.179 2.656-3.602 7.386-.946 10.564 2.657 3.179 7.386 3.602 10.564.946 33.025-27.597 74.455-40.323 126.456-38.808-4.048 24.423-21.88 101.396-91.28 159.996-7.393 6.242-14.608 4.876-22.246 3.429-6.108-1.156-13.03-2.467-18.538 2.085-7.353 6.08-3.537 15.539-.75 22.445.678 1.681 1.711 4.242 2.137 5.876-29.155 23.4-50.218 38.311-64.007 47.381 17.664-41.226 47.74-90.64 98.917-141.106 2.949-2.908 2.982-7.657.074-10.606-2.909-2.949-7.657-2.982-10.606-.074-49.375 48.689-79.777 96.582-98.487 137.558.581-18.812 2.712-43.971 8.815-70.635 1.167-.43 3.226-.885 4.564-1.182 5.388-1.191 13.532-2.991 15.91-10.673 1.868-6.031-1.915-10.861-4.955-14.742-4.287-5.473-5.833-8.106-3.828-12.173 11.978-24.293 23.844-42.89 37.344-58.526 2.707-3.135 2.36-7.871-.775-10.578-3.136-2.708-7.872-2.36-10.578.775-14.355 16.625-26.888 36.23-39.444 61.695-6.375 12.93 1.332 22.77 5.473 28.056.199.254.414.528.631.809-1.032.272-2.162.521-3.016.71-5.475 1.21-13.748 3.039-15.628 11.096-13.392 57.378-9.143 107.236-8.955 109.33.049.546.165 1.075.327 1.587-2.905 8.593-5.278 16.69-7.212 24.208h-46.055c-13.62 0-24.7 11.08-24.7 24.7v23.865c0 8.924 4.758 16.758 11.87 21.098v23.109c-29.986 4.016-53.193 29.748-53.193 60.816v29.583c0 13.126 10.679 23.804 23.804 23.804h12.607c4.142 0 7.5-3.358 7.5-7.5s-3.358-7.5-7.5-7.5h-12.607c-4.854 0-8.804-3.95-8.804-8.804v-29.583c0-25.573 20.805-46.378 46.377-46.378h102.91c25.573 0 46.377 20.805 46.377 46.378v29.583c0 4.855-3.95 8.804-8.804 8.804h-135.449c-4.142 0-7.5 3.358-7.5 7.5s3.358 7.5 7.5 7.5h135.449c13.126 0 23.804-10.679 23.804-23.804v-29.583c0-31.068-23.207-56.8-53.193-60.816v-23.109c7.112-4.341 11.87-12.174 11.87-21.098v-23.865c0-13.62-11.081-24.7-24.7-24.7h-32.049c1.885-6.969 4.158-14.42 6.895-22.288 10.158-5.754 36.828-22.223 83.995-60.195 7.282-5.862 3.539-15.141.805-21.916-.557-1.381-1.343-3.328-1.863-4.93 1.401.174 3.125.501 4.45.751 8.708 1.649 21.868 4.142 34.714-6.706 45.903-38.759 69.984-84.958 82.102-116.888 13.158-34.669 15.434-60.011 15.524-61.072.172-2.019-.481-4.022-1.809-5.552zm-284.213 391.006v-18.945h89.278v18.945zm101.149-67.51v23.865c0 5.349-4.352 9.7-9.7 9.7h-93.618c-5.349 0-9.7-4.351-9.7-9.7v-23.865c0-5.349 4.352-9.7 9.7-9.7h93.618c5.348 0 9.7 4.351 9.7 9.7z"/><path d="m225.952 463.542c4.142 0 7.5-3.358 7.5-7.5s-3.358-7.5-7.5-7.5h-71.641c-4.142 0-7.5 3.358-7.5 7.5s3.358 7.5 7.5 7.5z"/></g></svg>