<svg id="Capa_1" enable-background="new 0 0 511.597 511.597" height="512" viewBox="0 0 511.597 511.597" width="512" xmlns="http://www.w3.org/2000/svg"><g><g><path d="m240.299 488.597v-465.597c0-8.56 6.939-15.5 15.5-15.5 8.56 0 15.5 6.939 15.5 15.5v465.597c0 8.56-6.939 15.5-15.5 15.5-8.561 0-15.5-6.94-15.5-15.5z" fill="#704c3b"/></g></g><g><g><path d="m117.5 110.799h276.597c8.56 0 15.5 6.939 15.5 15.5 0 8.56-6.939 15.5-15.5 15.5h-276.597c-8.56 0-15.5-6.939-15.5-15.5 0-8.561 6.939-15.5 15.5-15.5z" fill="#9a6a53"/></g></g><g><g><path d="m360.641 464.777-104.882-70-104.804 70v-294.143h209.686z" fill="#cd5668"/></g></g><g><g><path d="m253.714 170.635v225.508l2.045-1.366 104.882 70v-294.142z" fill="#596c76"/></g></g><g><g><path d="m330.641 170.635v274.12l30 20.022v-294.142z" fill="#465a61"/></g></g><g><g><path d="m166.523 110.799h26.073v59.836h-26.073z" fill="#ffefd2"/></g></g><g><g><path d="m166.523 110.799h26.073v59.836h-26.073z" fill="#ffefd2"/></g></g><g><g><path d="m319.001 110.799h26.073v59.836h-26.073z" fill="#ffefd2"/></g></g><g><g><path d="m319.001 110.799h26.073v59.836h-26.073z" fill="#ffefd2"/></g></g><g><g><ellipse cx="253.714" cy="290.491" fill="#fff4f1" rx="69.101" ry="69.101" transform="matrix(.707 -.707 .707 .707 -131.097 264.486)"/></g></g><g><g><path d="m253.714 221.39c-5.154 0-10.169.582-15 1.652 30.948 6.853 54.101 34.439 54.101 67.449s-23.153 60.596-54.101 67.449c4.831 1.07 9.846 1.652 15 1.652 38.163 0 69.101-30.938 69.101-69.101s-30.938-69.101-69.101-69.101z" fill="#e6ddde"/></g></g><g><g><path d="m265.84 307.138h-25.467v-40.058c0-7.033 12.734-19.96 12.734-19.96s12.734 12.928 12.734 19.96v40.058z" fill="#cd5668"/></g></g><g><g><path d="m231.533 277.802c-10.404 0-19.131 7.164-21.527 16.828.819-.092 1.651-.143 2.494-.143 12.25 0 22.181 9.931 22.181 22.181 0 1.846-.229 3.638-.654 5.353 11.075-1.24 19.687-10.631 19.687-22.038 0-12.25-9.931-22.181-22.181-22.181z" fill="#cd5668"/></g></g><g><g><path d="m275.895 277.802c10.404 0 19.131 7.164 21.527 16.828-.819-.092-1.651-.143-2.494-.143-12.25 0-22.181 9.931-22.181 22.181 0 1.846.229 3.638.654 5.353-11.075-1.24-19.687-10.631-19.687-22.038 0-12.25 9.931-22.181 22.181-22.181z" fill="#cd5668"/></g></g><g><path d="m396.718 103.452-118.298-84.581c-1.951-10.718-11.349-18.871-22.622-18.871s-20.67 8.153-22.622 18.871l-118.298 84.581c-11.452 1.306-20.379 11.05-20.379 22.846 0 12.682 10.317 23 23 23h41.523v13.836h-8.067c-4.143 0-7.5 3.358-7.5 7.5v144.214c0 4.142 3.357 7.5 7.5 7.5s7.5-3.358 7.5-7.5v-136.714h87.759v36.128c-38.731 3.782-69.102 36.522-69.102 76.229s30.371 72.447 69.102 76.229v25.413l-87.759 58.616v-105.9c0-4.142-3.357-7.5-7.5-7.5s-7.5 3.358-7.5 7.5v119.929c0 2.767 1.523 5.31 3.964 6.614 2.441 1.305 5.4 1.159 7.702-.378l77.677-51.881v69.464c0 12.682 10.317 22.999 23 22.999s23-10.317 23-22.999v-69.426l77.68 51.845c1.256.838 2.707 1.262 4.164 1.262 1.212 0 2.428-.294 3.536-.887 2.439-1.305 3.963-3.847 3.963-6.613v-196.261c0-4.142-3.357-7.5-7.5-7.5s-7.5 3.358-7.5 7.5v182.238l-91.927-61.353v-22.682c38.73-3.782 69.101-36.522 69.101-76.229s-30.371-72.447-69.101-76.229v-36.128l-.001-.001h91.928v60.382c0 4.142 3.357 7.5 7.5 7.5s7.5-3.358 7.5-7.5v-67.882c0-4.142-3.357-7.5-7.5-7.5h-8.067v-13.836h41.523c12.683 0 23-10.317 23-23 0-11.794-8.927-21.539-20.379-22.845zm-132.92 385.145c0 4.411-3.589 7.999-8 7.999s-8-3.588-8-7.999v-79.483l7.963-5.319 8.037 5.364zm51.517-198.106c0 33.967-27.634 61.601-61.601 61.601s-61.602-27.634-61.602-61.601 27.635-61.601 61.602-61.601 61.601 27.634 61.601 61.601zm29.759-187.192h-26.074-40.202v-65.717l91.914 65.717zm-144.978 45.999h32.702v13.836h-32.702zm47.702 0h16v13.836h-16zm31 0h32.702v13.836h-32.702zm32.702-15h-111.404v-15.999h111.404zm-63.702-111.298c0-4.411 3.589-8 8-8s8 3.588 8 8v80.299h-16v-21.266c0-4.142-3.357-7.5-7.5-7.5s-7.5 3.358-7.5 7.5v21.266h-40.202-.021-26.053c-.201 0-.398.015-.595.03-.197-.015-.394-.03-.595-.03h-24.448l91.914-65.717v14.451c0 4.142 3.357 7.5 7.5 7.5s7.5-3.358 7.5-7.5zm-130.299 111.298c-4.411 0-8-3.588-8-8 0-4.411 3.588-7.999 7.999-8 .003 0 .005.001.008.001.002 0 .004-.001.006-.001h41.51v15.999h-41.523zm56.524 28.836v-44.835h11.073v44.835zm152.477 0v-44.835h11.073v44.835zm67.597-28.836h-41.523v-15.999h41.51c.002 0 .004.001.007.001s.005-.001.008-.001c4.411.001 7.999 3.589 7.999 8-.001 4.41-3.59 7.999-8.001 7.999z"/><path d="m247.762 241.857c-13.439 13.645-14.89 22.185-14.89 25.224v3.255c-.445-.02-.891-.034-1.34-.034-13.673 0-25.519 9.262-28.806 22.523-.591 2.382.021 4.903 1.64 6.749 1.618 1.846 4.037 2.787 6.475 2.509.582-.065 1.125-.097 1.659-.097 8.096 0 14.682 6.586 14.682 14.681 0 1.192-.146 2.386-.435 3.55-.59 2.382.023 4.902 1.641 6.747 1.433 1.634 3.492 2.556 5.639 2.556.277 0 .557-.015.835-.046 7.535-.843 14.139-4.454 18.852-9.752 4.713 5.298 11.318 8.909 18.853 9.752.278.031.558.046.835.046 2.147 0 4.206-.922 5.639-2.556 1.618-1.845 2.23-4.365 1.641-6.747-.288-1.163-.435-2.357-.435-3.55 0-8.095 6.586-14.681 14.681-14.681.527 0 1.085.033 1.658.097 2.431.274 4.857-.664 6.476-2.509 1.618-1.846 2.23-4.366 1.641-6.748-3.286-13.262-15.132-22.524-28.807-22.524-.861 0-1.712.045-2.555.117v-3.338c0-9.122-10.414-20.678-14.892-25.224-1.409-1.431-3.334-2.237-5.343-2.237s-3.934.806-5.344 2.237zm-6.182 68.843c-2.111-10.306-9.581-18.682-19.36-22.08 2.555-2.092 5.813-3.318 9.314-3.318 8.096 0 14.682 6.586 14.682 14.681-.002 4.205-1.77 8.028-4.636 10.717zm43.628-22.08c-9.778 3.398-17.248 11.774-19.359 22.08-2.866-2.689-4.635-6.512-4.635-10.717 0-8.095 6.586-14.681 14.681-14.681 3.501 0 6.76 1.226 9.313 3.318zm-26.868-12.551c-1.687 1.242-3.237 2.658-4.626 4.221-1.717-1.931-3.68-3.638-5.842-5.069v-8.071c.205-1.553 2.342-4.994 5.23-8.668 2.874 3.667 5.035 7.137 5.238 8.668z"/></g></svg>