<svg id="Capa_1" enable-background="new 0 0 511.989 511.989" height="512" viewBox="0 0 511.989 511.989" width="512" xmlns="http://www.w3.org/2000/svg"><g><g><path d="m296.695 115.093c31.58 2.921 62.342 12.329 90.426 27.747l68.306 37.5c9.449 5.187 20.877-1.835 20.877-12.829v-145.437c0-10.994-11.428-18.017-20.877-12.829l-68.586 37.653c-34.353 18.86-72.714 28.728-111.678 28.728h-205.272v38.485h33.248" fill="#fdb441"/></g></g><g><g><path d="m455.426 9.245-11.148 6.12c1.001 1.975 1.58 4.24 1.58 6.709v145.436c0 2.469-.58 4.734-1.58 6.709l11.148 6.12c9.449 5.188 20.876-1.836 20.876-12.829v-145.436c.001-10.993-11.427-18.016-20.876-12.829z" fill="#fea613"/></g></g><g><g><path d="m134.494 114.112h140.949c7.111 0 14.202.329 21.252.981" fill="#fdb441"/></g></g><g><g><path d="m35.686 65.82h34.205v54.042h-34.205z" fill="#fe9901"/></g></g><g><g><path d="m106.647 75.627h23.998v84.44h-23.998z" fill="#fee8c7"/></g></g><g><g><path d="m268.318 75.627h23.998v84.44h-23.998z" fill="#fee8c7"/></g></g><g><g><path d="m296.363 502.513-101.319-71.21-101.319 71.21c-7.283 5.119-17.178-.231-17.178-9.288v-321.477c0-8.718 6.889-15.785 15.387-15.785h206.218c8.498 0 15.387 7.067 15.387 15.785v321.477c.002 9.057-9.892 14.407-17.176 9.288z" fill="#cd5668"/></g></g><g><g><path d="m298.154 155.963h-30.444c8.498 0 15.387 7.067 15.387 15.785v321.441l13.267 9.324c7.283 5.119 17.177-.231 17.177-9.288v-321.477c0-8.718-6.889-15.785-15.387-15.785z" fill="#c63c50"/></g></g><g><g><path d="m313.541 302.214v-130.466c0-8.718-6.889-15.785-15.387-15.785h-206.219c-8.498 0-15.387 7.067-15.387 15.785v130.466z" fill="#9facba"/></g></g><g><g><path d="m298.154 155.963h-30.444c8.498 0 15.387 7.067 15.387 15.785v130.466h30.444v-130.466c0-8.718-6.889-15.785-15.387-15.785z" fill="#8d9ca8"/></g></g><g><g><ellipse cx="195.044" cy="302.214" fill="#fff4f1" rx="74.35" ry="76.272"/></g></g><g><g><path d="m195.044 225.941c-5.218 0-10.308.557-15.222 1.606 33.76 7.207 59.128 37.895 59.128 74.667 0 36.771-25.368 67.46-59.128 74.667 4.914 1.049 10.004 1.606 15.222 1.606 41.062 0 74.35-34.148 74.35-76.273 0-42.124-33.287-76.273-74.35-76.273z" fill="#e6ddde"/></g></g><g><g><path d="m230.226 290.151h-19.989c-1.896 0-3.433-1.577-3.433-3.522v-20.506c0-1.945-1.537-3.522-3.433-3.522h-16.651c-1.896 0-3.433 1.577-3.433 3.522v20.506c0 1.945-1.537 3.522-3.433 3.522h-19.989c-1.896 0-3.433 1.577-3.433 3.522v17.081c0 1.945 1.537 3.522 3.433 3.522h19.989c1.896 0 3.433 1.577 3.433 3.522v20.506c0 1.945 1.537 3.522 3.433 3.522h16.651c1.896 0 3.433-1.577 3.433-3.522v-20.506c0-1.945 1.537-3.522 3.433-3.522h19.989c1.896 0 3.433-1.577 3.433-3.522v-17.081c0-1.945-1.537-3.522-3.433-3.522z" fill="#ae3244"/></g></g><g><path d="m473.023 3.014c-6.577-3.893-14.504-4.022-21.206-.343l-68.585 37.654c-33.13 18.188-70.499 27.802-108.068 27.802h-6.846-190.926v-2.307c0-4.142-3.358-7.5-7.5-7.5h-34.206c-4.142 0-7.5 3.358-7.5 7.5v54.042c0 4.142 3.358 7.5 7.5 7.5h34.206c3.538 0 6.497-2.453 7.286-5.749h21.97v26.851h-7.212c-12.62 0-22.887 10.446-22.887 23.285v202.347c0 4.142 3.358 7.5 7.5 7.5s7.5-3.358 7.5-7.5v-64.381h29.491c3.72 42.69 38.844 76.273 81.505 76.273 42.858 0 78.104-33.897 81.549-76.868h29.447v184.108c0 2.133-1.383 3.082-1.978 3.391-.654.34-1.964.76-3.387-.239l-101.319-71.21c-2.587-1.818-6.038-1.818-8.625 0l-101.319 71.21c-1.422.999-2.732.579-3.386.239-.595-.309-1.978-1.258-1.978-3.391v-87.9c0-4.142-3.358-7.5-7.5-7.5s-7.5 3.358-7.5 7.5v87.9c0 7.078 3.856 13.478 10.063 16.702 2.657 1.38 5.539 2.062 8.413 2.062 3.689 0 7.362-1.125 10.514-3.34l97.006-68.179 97.007 68.179c5.604 3.94 12.857 4.43 18.926 1.279 6.207-3.225 10.063-9.624 10.063-16.702v-321.481c0-12.27-9.378-22.347-21.225-23.217v-25.569c29.413 3.22 57.554 12.101 83.695 26.452l68.306 37.5c3.246 1.782 6.779 2.671 10.309 2.671 3.756 0 7.506-1.007 10.898-3.014 6.75-3.995 10.78-11.12 10.78-19.061v-145.436c-.001-7.94-4.031-15.066-10.781-19.06zm-197.205 145.449v-65.337h8.998v65.337zm-137.673-65.337h122.673v23.486h-122.673zm-75.753 29.236h-19.206v-39.042h19.206zm15-5.75v-23.486h21.756v23.486zm36.755-23.486h8.998v65.337h-8.998zm80.897 287.86c-36.861 0-66.85-30.851-66.85-68.773 0-37.921 29.989-68.772 66.85-68.772s66.85 30.851 66.85 68.772c0 37.922-29.989 68.773-66.85 68.773zm110.997-199.238v122.37h-29.536c-3.993-42.407-38.997-75.677-81.46-75.677-42.661 0-77.784 33.583-81.505 76.272h-29.492v-122.965c0-4.568 3.538-8.285 7.887-8.285h82.916c4.142 0 7.5-3.358 7.5-7.5s-3.358-7.5-7.5-7.5h-36.706v-26.851h122.673v26.851h-55.522c-4.142 0-7.5 3.358-7.5 7.5s3.358 7.5 7.5 7.5h92.858c4.348 0 7.887 3.717 7.887 8.285zm162.762-4.237c0 2.585-1.278 4.885-3.42 6.152-.947.56-3.46 1.688-6.348.103l-68.306-37.5c-28.364-15.572-58.941-25.104-90.914-28.385v-26.052c31.629-3.312 62.562-12.944 90.635-28.356l68.585-37.654c2.888-1.586 5.402-.457 6.348.103 2.142 1.267 3.42 3.567 3.42 6.152z"/><path d="m230.226 282.651h-15.922v-16.528c0-6.077-4.905-11.021-10.933-11.021h-16.651c-6.028 0-10.933 4.944-10.933 11.021v16.528h-15.922c-6.029 0-10.934 4.944-10.934 11.022v17.081c0 6.078 4.905 11.022 10.934 11.022h15.922v16.528c0 6.078 4.905 11.022 10.933 11.022h16.651c6.028 0 10.933-4.944 10.933-11.022v-16.528h15.922c6.028 0 10.933-4.944 10.933-11.022v-17.081c0-6.077-4.905-11.022-10.933-11.022zm-4.067 24.125h-15.922c-6.028 0-10.933 4.944-10.933 11.022v16.528h-8.517v-16.528c0-6.078-4.905-11.022-10.933-11.022h-15.924v-9.125h15.923c6.028 0 10.933-4.944 10.933-11.022v-16.528h8.517v16.528c0 6.078 4.905 11.022 10.933 11.022h15.922v9.125z"/></g></svg>