<svg id="Capa_1" enable-background="new 0 0 508.737 508.737" height="512" viewBox="0 0 508.737 508.737" width="512" xmlns="http://www.w3.org/2000/svg"><g><g><circle cx="453.627" cy="353.854" fill="#b6c4cf" r="47.609"/></g></g><g><g><path d="m452.889 306.245c-5.106 0-10.02.813-14.631 2.301 19.133 6.174 32.978 24.121 32.978 45.309s-13.845 39.134-32.978 45.309c4.611 1.488 9.525 2.301 14.631 2.301 26.294 0 47.609-21.316 47.609-47.609.001-26.296-21.315-47.611-47.609-47.611z" fill="#9facba"/></g></g><g><g><ellipse cx="28.66" cy="333.296" fill="#7a8c98" rx="21.16" ry="21.16" transform="matrix(.707 -.707 .707 .707 -227.282 117.886)"/></g></g><g><g><path d="m413.56 200.015-267.432 107.806c-34.317 12.583-72.171-6.163-82.965-41.083-10.793-34.921 9.882-71.757 45.313-80.732l281.621-61.899z" fill="#b6c4cf"/></g></g><g><g><path d="m390.098 124.106-25.197 5.538c10.548 34.126-6.818 70.641-39.946 83.996l-208.826 84.181c-8.771 3.216-17.772 4.374-26.495 3.75 16.199 10.399 36.918 13.428 56.495 6.25l267.431-107.806z" fill="#9facba"/></g></g><g><g><path d="m434.535 204.14-5.925 1.831c-6.659 2.058-13.726-1.671-15.784-8.33l-22.322-72.219c-2.058-6.659 1.671-13.726 8.33-15.784l5.925-1.831c6.659-2.058 13.726 1.672 15.784 8.33l22.322 72.219c2.059 6.659-1.671 13.726-8.33 15.784z" fill="#8d9ca8"/></g></g><g><g><path d="m355.033 365.89h-226.997c-6.505 0-11.779-5.273-11.779-11.779v-57.658c0-15.1 10.307-28.251 24.97-31.859l201.132-49.498c11.938-4.21 24.453 4.646 24.453 17.305v121.711c-.001 6.504-5.274 11.778-11.779 11.778z" fill="#c39f8e"/></g></g><g><g><path d="m342.359 215.096-12.357 3.041c4.099 3.31 6.81 8.374 6.81 14.264v121.71c0 6.505-5.273 11.779-11.779 11.779h30c6.505 0 11.779-5.274 11.779-11.779v-121.71c-.001-12.659-12.515-21.515-24.453-17.305z" fill="#ab7b64"/></g></g><g><g><circle cx="117.873" cy="364.601" fill="#ab7b64" r="36.795"/></g></g><g><g><circle cx="117.873" cy="364.601" fill="#ab7b64" r="13.848"/></g></g><g><g><circle cx="117.873" cy="364.601" fill="#855b47" r="13.848"/></g></g><g><g><circle cx="353.369" cy="342.615" fill="#ab7b64" r="58.879"/></g></g><g><g><path d="m353.369 283.736c-5.185 0-10.21.676-15 1.935 25.251 6.634 43.879 29.611 43.879 56.944s-18.628 50.311-43.879 56.945c4.79 1.258 9.815 1.935 15 1.935 32.518 0 58.879-26.361 58.879-58.879 0-32.519-26.361-58.88-58.879-58.88z" fill="#9a6a53"/></g></g><g><g><circle cx="353.369" cy="342.615" fill="#ab7b64" r="22.159"/></g></g><g><g><circle cx="353.369" cy="342.615" fill="#855b47" r="22.159"/></g></g><g><path d="m453.628 298.745c-15.178 0-29.374 6.155-39.656 16.839-7.559-16.879-21.959-30.041-39.66-35.943v-47.24c0-2.738-.444-5.421-1.27-7.966l38.471-15.509c3.65 3.24 8.409 5.109 13.382 5.109 1.963 0 3.959-.29 5.93-.899l5.925-1.832c10.599-3.276 16.557-14.564 13.281-25.164l-22.322-72.219c-3.276-10.599-14.563-16.557-25.164-13.281l-5.925 1.832c-5.134 1.587-9.344 5.079-11.853 9.832-.964 1.827-1.626 3.757-1.994 5.732l-95.204 20.926c-4.046.889-6.604 4.89-5.715 8.935.89 4.045 4.891 6.607 8.935 5.715l94.18-20.701 19.388 62.726-40.228 16.216c-.244-.186-.484-.377-.735-.555-6.727-4.76-15.354-6.023-23.154-3.407l-94.564 23.272-16.356-64.042 31.77-6.983c4.046-.889 6.604-4.89 5.715-8.935-.889-4.046-4.892-6.603-8.935-5.715l-151.004 33.192c-.078.017-.155.035-.232.055-19.149 4.851-35.02 17.01-44.689 34.236-8 14.252-10.81 30.322-8.244 46.134-18.23 8.578-30.626 26.365-32.334 46.474-12.282 3.235-21.367 14.434-21.367 27.717 0 15.803 12.857 28.66 28.66 28.66s28.66-12.857 28.66-28.66c0-13.112-8.855-24.189-20.896-27.583 1.513-13.438 9.519-25.345 21.294-31.837 8.653 22.202 27.658 38.503 51.039 43.669v3.708c-20.066 4.215-35.18 22.047-35.18 43.347 0 24.425 19.871 44.295 44.295 44.295 21.415 0 39.327-15.277 43.416-35.506h33.687c4.142 0 7.5-3.358 7.5-7.5s-3.358-7.5-7.5-7.5h-5.875v-97.854l44.934-11.058v108.913h-9.058c-4.142 0-7.5 3.358-7.5 7.5s3.358 7.5 7.5 7.5h69.514c.031 0 .06-.004.091-.004 11.113 21.145 33.287 35.608 58.788 35.608 21.688 0 40.977-10.457 53.098-26.591 9.854 16.385 27.499 26.56 47.161 26.56 30.387 0 55.109-24.722 55.109-55.109s-24.722-55.109-55.109-55.109zm-55.594-179.439c.638-1.209 1.71-2.098 3.016-2.502l5.925-1.832c.502-.155 1.009-.229 1.509-.229 2.186 0 4.216 1.413 4.895 3.609l22.322 72.219c.834 2.697-.682 5.57-3.379 6.403l-5.925 1.831c-2.698.833-5.57-.683-6.403-3.38l-16.172-52.321-6.151-19.899c-.405-1.305-.276-2.69.363-3.899zm-355.714 213.99c0 7.532-6.128 13.66-13.66 13.66s-13.66-6.128-13.66-13.66 6.128-13.66 13.66-13.66 13.66 6.128 13.66 13.66zm301.831-110.917c.237-.059.472-.128.702-.21 3.365-1.186 6.965-.684 9.876 1.376 2.912 2.061 4.582 5.289 4.582 8.857v44.115c-1.959-.175-3.939-.28-5.943-.28-16.058 0-30.8 5.733-42.292 15.258v-60.975zm-113.04 12.371-13.163 3.24-16.532-64.733 13.247-2.912zm-160.782 29.773c-4.607-14.905-2.939-30.606 4.697-44.21 7.617-13.571 20.108-23.159 35.181-27.009l76.551-16.826 16.625 65.096-63.948 15.737c-18.063 4.445-30.677 20.541-30.677 39.142v5.638c-18.285-5.176-32.732-19.136-38.429-37.568zm47.544 129.373c-16.153 0-29.295-13.142-29.295-29.295s13.142-29.295 29.295-29.295 29.295 13.142 29.295 29.295-13.142 29.295-29.295 29.295zm56.228-35.506h-12.377c-2.759-19.571-18.351-35.065-37.967-37.682v-24.255c0-11.679 7.921-21.786 19.262-24.577l31.081-7.649v94.163zm74.933 0v-112.603l47.042-11.577v74.944c-5.765 9.832-9.086 21.263-9.086 33.461 0 5.436.671 10.716 1.91 15.775zm104.335 35.604c-28.331 0-51.379-23.049-51.379-51.379 0-28.331 23.048-51.379 51.379-51.379s51.379 23.048 51.379 51.379c0 28.33-23.049 51.379-51.379 51.379zm100.259-.031c-16.654 0-31.327-10.022-37.38-25.532-.258-.662-.605-1.261-1.014-1.801 2.903-7.453 4.514-15.547 4.514-24.015 0-3.192-.24-6.329-.678-9.403.285-.311.552-.644.788-1.01 7.429-11.557 20.053-18.457 33.77-18.457 22.116 0 40.109 17.993 40.109 40.109s-17.993 40.109-40.109 40.109z"/><path d="m117.873 343.253c-11.771 0-21.348 9.577-21.348 21.348s9.577 21.348 21.348 21.348 21.348-9.577 21.348-21.348-9.577-21.348-21.348-21.348zm0 27.695c-3.5 0-6.348-2.848-6.348-6.348s2.848-6.348 6.348-6.348 6.348 2.848 6.348 6.348-2.848 6.348-6.348 6.348z"/><path d="m353.369 312.956c-16.354 0-29.659 13.305-29.659 29.659s13.305 29.659 29.659 29.659 29.659-13.305 29.659-29.659c-.001-16.354-13.305-29.659-29.659-29.659zm0 44.318c-8.083 0-14.659-6.576-14.659-14.659s6.576-14.659 14.659-14.659 14.659 6.576 14.659 14.659c-.001 8.083-6.576 14.659-14.659 14.659z"/></g></svg>