<svg id="Capa_1" enable-background="new 0 0 512.001 512.001" height="512" viewBox="0 0 512.001 512.001" width="512" xmlns="http://www.w3.org/2000/svg"><g><g><path d="m478.226 72.387 13.139-34.331-14.779-14.621-34.703 12.998-46.297 45.8 17.653 17.463.519.514.519.514 17.652 17.463z" fill="#9a6a53"/></g></g><g><g><path d="m202.359 345.295-36.343-35.953 229.57-227.108 36.343 35.953z" fill="#c39f8e"/></g></g><g><g><path d="m395.586 82.233-15 14.839c11.75 11.624 11.75 30.604 0 42.228l-193.227 191.156 15 14.839 229.57-227.108z" fill="#ab7b64"/></g></g><g><g><path d="m216.796 466.586c-47.879 47.366-125.507 47.366-173.387 0s-47.879-124.161 0-171.527c69.165-68.424 226.457-52.501 226.457-52.501s16.096 155.605-53.07 224.028z" fill="#fece85"/></g></g><g><g><path d="m269.867 242.558s-22.747-2.302-54.74-1.393c15.286.437 24.74 1.393 24.74 1.393s16.095 155.605-53.07 224.028c-20.117 19.901-45.486 31.437-71.693 34.615 36.167 4.385 73.931-7.151 101.693-34.615 69.165-68.423 53.07-224.028 53.07-224.028z" fill="#fec165"/></g></g><g><g><ellipse cx="136.737" cy="374.26" fill="#704c3b" rx="40.122" ry="39.692"/></g></g><g><g><path d="m88.174 459.769-37.874-37.468c-5.536-5.477-5.536-14.357 0-19.834 5.536-5.477 14.512-5.477 20.049 0l37.874 37.468c5.536 5.477 5.536 14.357 0 19.834-5.536 5.477-14.512 5.477-20.049 0z" fill="#704c3b"/></g></g><g><path d="m509.832 87.737c-2.914-2.945-7.662-2.969-10.606-.058l-.872.862-13.275-13.133c.05-.114.107-.224.152-.341l13.14-34.331c1.063-2.777.384-5.921-1.73-8.013l-14.78-14.621c-2.08-2.058-5.167-2.719-7.905-1.691l-34.704 12.999c-.159.059-.311.133-.465.203l-13.723-13.576.756-.747c2.945-2.913 2.971-7.662.058-10.606-2.913-2.946-7.662-2.969-10.606-.058l-12.295 12.163c-2.945 2.913-2.971 7.662-.058 10.606 1.467 1.483 3.399 2.226 5.332 2.226 1.906 0 3.813-.722 5.274-2.168l.875-.865 13.386 13.243-12.833 12.695-13.387-13.243.756-.748c2.945-2.913 2.971-7.662.058-10.607-2.914-2.945-7.663-2.969-10.606-.057l-12.294 12.163c-2.945 2.913-2.971 7.662-.058 10.606 1.467 1.482 3.399 2.225 5.332 2.225 1.906 0 3.813-.722 5.274-2.168l.874-.864 13.387 13.242-13.976 13.827c-.002.001-.003.003-.005.005l-10.534 10.42c-2.945 2.913-2.971 7.662-.058 10.606 2.914 2.945 7.663 2.969 10.607.057l5.264-5.207 5.684 5.623 19.995 19.781-30.745 30.416-25.679-25.403 4.949-4.896c2.945-2.913 2.971-7.662.058-10.606-2.914-2.946-7.662-2.969-10.606-.058l-127.17 125.803c-14.268-.049-31.542.461-50.209 2.24-65.426 6.236-113.783 24.419-143.729 54.043-24.592 24.329-38.135 56.681-38.135 91.097 0 34.415 13.543 66.768 38.135 91.096 25.355 25.083 58.662 37.625 91.968 37.625s66.612-12.542 91.968-37.625c5.188-5.134 10.102-10.918 14.604-17.191 2.415-3.365 1.645-8.051-1.72-10.466-3.366-2.415-8.051-1.645-10.466 1.72-4.013 5.591-8.376 10.73-12.967 15.273-44.895 44.412-117.943 44.413-162.838 0-21.721-21.489-33.684-50.054-33.684-80.432 0-30.379 11.963-58.943 33.684-80.432 58.242-57.617 184.765-52.832 214.22-50.856 1.613 23.466 5.041 108.494-23.712 170.881-1.733 3.762-.09 8.217 3.672 9.951 3.76 1.734 8.217.089 9.951-3.672 22.436-48.679 26.421-108.547 26.239-146.757l158.15-156.418c.002-.001.003-.004.005-.005l14.087-13.937 12.897 12.759-.759.751c-2.945 2.913-2.971 7.662-.058 10.607 1.467 1.483 3.399 2.225 5.332 2.225 1.906 0 3.813-.722 5.274-2.168l12.295-12.163c2.945-2.913 2.971-7.662.058-10.606-2.913-2.945-7.662-2.969-10.607-.058l-.871.862-12.897-12.759 12.833-12.695 12.897 12.759-.759.75c-2.945 2.913-2.971 7.662-.058 10.606 1.467 1.483 3.4 2.226 5.332 2.226 1.906 0 3.813-.722 5.274-2.168l12.295-12.163c2.946-2.913 2.972-7.661.058-10.606zm-129.976 71.415-21.067 20.841-25.679-25.403 21.067-20.841zm-52.798 52.232-25.679-25.403 21.067-20.841 25.679 25.404zm-49.731 30.403c-.365-3.538-3.166-6.332-6.704-6.69-.646-.065-7.141-.703-17.711-1.169l37.803-37.397 25.679 25.403-37.855 37.45c-.472-10.176-1.107-16.577-1.212-17.597zm173.969-153.308-6.298-6.23c-2.944-2.913-7.693-2.888-10.606.058-2.913 2.944-2.888 7.693.058 10.606l6.182 6.116-8.702 8.608-25.68-25.404 8.702-8.609 5.809 5.746c1.462 1.446 3.368 2.168 5.274 2.168 1.933 0 3.865-.743 5.332-2.226 2.913-2.945 2.888-7.693-.058-10.606l-5.693-5.632 12.833-12.695 5.808 5.746c1.462 1.446 3.368 2.168 5.274 2.168 1.933 0 3.865-.743 5.332-2.226 2.913-2.944 2.888-7.693-.058-10.607l-4.297-4.25 24.212-9.069 7.89 7.805-9.167 23.952-4.949-4.896c-2.943-2.913-7.692-2.888-10.606.058-2.913 2.944-2.888 7.693.058 10.606l6.182 6.116z"/><path d="m247.208 282.305c-2.914-2.945-7.662-2.97-10.606-.058l-62.914 62.239c-1.033-1.254-2.133-2.466-3.305-3.625-1.137-1.125-2.319-2.179-3.538-3.166l62.788-62.114c2.945-2.913 2.971-7.662.058-10.607-2.914-2.945-7.662-2.97-10.606-.058l-65.813 65.106c-16.892-6.165-36.634-2.56-50.179 10.838-9.013 8.917-13.977 20.778-13.977 33.399 0 5.665 1.008 11.175 2.926 16.336l-11.513 11.39-4.903-4.85c-8.435-8.344-22.161-8.345-30.597 0-4.113 4.069-6.378 9.484-6.378 15.249s2.265 11.18 6.378 15.249l37.871 37.469c4.218 4.172 9.758 6.258 15.299 6.258s11.082-2.086 15.299-6.259c4.112-4.068 6.377-9.484 6.377-15.249s-2.265-11.18-6.378-15.249l-4.788-4.736 11.494-11.371c5.323 1.943 10.926 2.927 16.533 2.927 12.183 0 24.371-4.589 33.645-13.765h.001c9.013-8.917 13.977-20.777 13.977-33.398 0-5.666-1.008-11.175-2.926-16.337l65.717-65.012c2.945-2.913 2.971-7.661.058-10.606zm-87.375 69.22c1.138 1.126 2.181 2.322 3.126 3.575l-45.57 45.081c-1.309-.954-2.563-2.015-3.748-3.187-1.138-1.126-2.181-2.321-3.126-3.575l45.57-45.082c1.31.955 2.564 2.017 3.748 3.188zm-55.719 22.735c0-8.583 3.383-16.658 9.526-22.735 6.369-6.3 14.731-9.449 23.096-9.449 1.365 0 2.73.093 4.086.261l-36.436 36.045c-.174-1.357-.272-2.732-.272-4.122zm-1.165 80.178c-2.619 2.59-6.88 2.59-9.5 0l-37.874-37.468c-1.243-1.229-1.927-2.857-1.927-4.585s.684-3.356 1.927-4.585c2.618-2.591 6.879-2.592 9.5 0l37.873 37.467c1.243 1.229 1.927 2.858 1.927 4.585.001 1.728-.684 3.357-1.926 4.586zm-4.903-35.121-6.854-6.781 8.595-8.503c1.033 1.254 2.133 2.466 3.305 3.625 1.137 1.125 2.319 2.179 3.539 3.166zm71.313-45.057c0 8.583-3.383 16.657-9.526 22.734-7.407 7.329-17.515 10.386-27.183 9.189l36.436-36.046c.175 1.358.273 2.733.273 4.123z"/></g></svg>