<svg id="Capa_1" enable-background="new 0 0 510.641 510.641" height="512" viewBox="0 0 510.641 510.641" width="512" xmlns="http://www.w3.org/2000/svg"><g><g><g><path d="m379.795 138.296-9.951-9.951c-2.852-2.851-3.101-7.647-.616-11.853l25.65-43.415c1.882-3.185 4.644-5.875 7.868-7.663l99.401-56.486-59.44 96.904c-1.782 2.951-4.322 5.468-7.287 7.22l-43.772 25.86c-4.206 2.485-9.002 2.235-11.853-.616z" fill="#d9e7ec"/></g></g><g><g><path d="m456.094 35.098-43.387 70.734c-1.782 2.951-4.323 5.468-7.287 7.22l-31.977 18.892 6.352 6.352c2.852 2.852 7.648 3.101 11.853.616l43.772-25.86c2.965-1.752 5.505-4.269 7.287-7.22l59.439-96.904z" fill="#c5d3dd"/></g></g><g><g><path d="m13.332 497.067-2.187-2.187c-4.873-4.873-4.873-12.774 0-17.647l358.944-358.943 19.834 19.834-358.944 358.943c-4.873 4.873-12.774 4.873-17.647 0z" fill="#b78c7a"/></g></g><g><g><path d="m214.646 249.287h60.509v28.049h-60.509z" fill="#9a6a53" transform="matrix(.707 -.707 .707 .707 -114.46 250.293)"/></g></g><g><g><path d="m322.869 137.849h66.94v28.049h-66.94z" fill="#fee8c7" transform="matrix(.707 -.707 .707 .707 -3.022 296.453)"/></g></g><g><g><path d="m87.082 373.636h66.94v28.049h-66.94z" fill="#704c3b" transform="matrix(.707 -.707 .707 .707 -238.808 198.786)"/></g></g><g><g><path d="m130.846 139.296 9.951-9.951c2.852-2.851 3.101-7.647.616-11.853l-25.65-43.415c-1.882-3.185-4.644-5.875-7.868-7.663l-99.4-56.485 59.44 96.904c1.782 2.951 4.322 5.468 7.287 7.22l43.772 25.86c4.204 2.484 9 2.234 11.852-.617z" fill="#d9e7ec"/></g></g><g><g><path d="m141.413 117.492-25.65-43.415c-1.882-3.185-4.643-5.875-7.868-7.663l-99.4-56.485 16.052 26.17 53.348 30.316c3.225 1.788 5.986 4.477 7.868 7.663l25.65 43.415c2.485 4.205 2.235 9.001-.617 11.853l-3.599 3.599 11.795 6.969c4.205 2.484 9.001 2.235 11.853-.616l9.951-9.951c2.852-2.854 3.102-7.65.617-11.855z" fill="#c5d3dd"/></g></g><g><g><path d="m497.308 498.067 2.187-2.187c4.873-4.873 4.873-12.774 0-17.647l-358.943-358.943-19.834 19.834 358.944 358.944c4.872 4.872 12.773 4.872 17.646-.001z" fill="#b78c7a"/></g></g><g><g><path d="m140.277 119.404h28.049v66.94h-28.049z" fill="#fee8c7" transform="matrix(.707 -.707 .707 .707 -62.904 153.883)"/></g></g><g><g><path d="m249.331 228.458h28.049v66.94h-28.049z" fill="#fee8c7" transform="matrix(.707 -.707 .707 .707 -108.076 262.938)"/></g></g><g><g><path d="m376.064 355.19h28.049v66.94h-28.049z" fill="#704c3b" transform="matrix(.707 -.707 .707 .707 -160.57 389.671)"/></g></g><path d="m504.799 472.93-75.818-75.818c-.001-.001-.003-.003-.004-.005l-47.334-47.334c-.001-.001-.003-.002-.004-.004l-96.378-96.378 18.064-18.063c2.93-2.929 2.93-7.678.001-10.607-2.929-2.928-7.678-2.929-10.607 0l-18.064 18.064-9.227-9.227 57.328-57.328 9.227 9.227-18.114 18.114c-2.929 2.929-2.929 7.677 0 10.606 2.93 2.929 7.678 2.929 10.607 0l23.414-23.414c.001-.001.002-.002.003-.002l43.864-43.864c0 .065.005.128.005.193 1.254-.437 47.472-27.581 47.472-27.581 4.044-2.389 7.465-5.778 9.866-9.756l59.439-96.904c1.789-2.917 1.377-6.675-1.002-9.135-2.381-2.46-6.123-2.998-9.097-1.307l-99.332 56.447c-4.417 2.449-8.113 6.047-10.689 10.407 0 0-27.057 46.179-27.506 47.596l-106.093 106.094-61.63-61.63-43.444-43.444c-.451-1.424-27.525-47.615-27.525-47.615-2.575-4.359-6.271-7.958-10.62-10.368l-16.236-9.227c-3.6-2.046-8.179-.786-10.226 2.815s-.786 8.18 2.815 10.226l16.305 9.265c2.054 1.138 3.847 2.885 5.048 4.918l23.039 38.997-1.696 1.696-18.561-18.561c-2.93-2.929-7.678-2.929-10.607 0s-2.929 7.677 0 10.606l18.562 18.561-1.653 1.653-39.354-23.25c-1.886-1.114-3.548-2.761-4.708-4.683l-44.205-72.064 32.184 18.289c3.602 2.046 8.179.786 10.226-2.815s.786-8.18-2.815-10.226l-57.519-32.686c-2.974-1.691-6.718-1.153-9.096 1.307-2.379 2.46-2.791 6.218-1.002 9.135l59.412 96.858c2.429 4.023 5.85 7.412 9.893 9.801 0 0 46.079 27.078 47.261 27.504-.01-.114 44.081 43.747 44.081 43.747l.003.003 61.629 61.629-95.375 95.375c-.002.002-.004.004-.007.006l-47.334 47.334c-.002.002-.004.004-.006.006l-75.817 75.817c-7.789 7.789-7.789 20.464 0 28.252l2.187 2.188c3.895 3.895 9.011 5.842 14.126 5.842 5.116 0 10.233-1.947 14.128-5.842l218.537-218.537 16.982 16.982c.003.003.006.005.009.008l79.389 79.389c0 .001.001.001.001.002l35.816 35.816 87.341 87.341c3.895 3.895 9.011 5.842 14.127 5.842 5.115 0 10.232-1.947 14.126-5.842.001 0 .001-.001.001-.001l2.186-2.187c7.79-7.789 7.79-20.464.001-28.253zm-171.438-307.306 9.395-9.395 27.333-27.333 9.227 9.227-36.728 36.727zm67.973-88.732c1.201-2.033 2.994-3.78 5.116-4.957l74.066-42.089-44.232 72.111c-1.133 1.877-2.795 3.524-4.682 4.638l-39.353 23.25-1.653-1.653 18.561-18.562c2.929-2.929 2.929-7.677 0-10.606-2.93-2.929-7.678-2.929-10.607 0l-18.561 18.561-1.696-1.696zm-34.223 298.019 9.227-9.227 36.727 36.727-9.227 9.227zm-79.398-79.399 9.227-9.227 68.792 68.792-9.227 9.227zm-156.389-156.388 9.227-9.227 36.727 36.727-9.227 9.227zm56.562 38.107 51.113 51.113-9.227 9.227-51.113-51.113zm52.492 70.947 9.227-9.227 36.728 36.727-9.227 9.227zm-96.849 125.733-36.728 36.727-9.227-9.227 36.728-36.727zm-117.852 117.853c-1.942 1.941-5.099 1.942-7.041.001l-2.187-2.188c-1.941-1.941-1.941-5.099 0-7.04l70.519-70.519 9.227 9.227zm128.459-128.46-9.227-9.227 90.077-90.077 9.227 9.227zm340.054 127.274-2.185 2.186c-1.94 1.941-5.101 1.941-7.041 0l-70.519-70.519 9.227-9.227 70.519 70.519c1.942 1.94 1.942 5.099-.001 7.041z"/></g></svg>